<svg xmlns="http://www.w3.org/2000/svg" xmlns:xlink="http://www.w3.org/1999/xlink" width="180" zoomAndPan="magnify" viewBox="0 0 135 44.999999" height="60" preserveAspectRatio="xMidYMid meet" version="1.0"><defs><g/></defs><path stroke-linecap="butt" transform="matrix(0.199669, 0, 0, 0.199669, 24.054088, 38.161931)" fill="none" stroke-linejoin="miter" d="M 0.00300466 11.005448 L 439.109248 11.005448 " stroke="#ffde59" stroke-width="22" stroke-opacity="1" stroke-miterlimit="4"/><g fill="#000000" fill-opacity="1"><g transform="translate(22.781979, 35.322046)"><g><path d="M 9.5 0.3125 C 6.4375 0.3125 4.222656 -0.441406 2.859375 -1.953125 C 1.503906 -3.472656 0.828125 -5.921875 0.828125 -9.296875 L 0.828125 -12.59375 L 7.453125 -12.59375 L 7.453125 -8.40625 C 7.453125 -6.726562 7.988281 -5.890625 9.0625 -5.890625 C 9.664062 -5.890625 10.082031 -6.066406 10.3125 -6.421875 C 10.550781 -6.773438 10.671875 -7.367188 10.671875 -8.203125 C 10.671875 -9.304688 10.539062 -10.21875 10.28125 -10.9375 C 10.019531 -11.65625 9.6875 -12.253906 9.28125 -12.734375 C 8.875 -13.222656 8.148438 -13.976562 7.109375 -15 L 4.203125 -17.890625 C 1.953125 -20.085938 0.828125 -22.523438 0.828125 -25.203125 C 0.828125 -28.078125 1.484375 -30.265625 2.796875 -31.765625 C 4.117188 -33.273438 6.050781 -34.03125 8.59375 -34.03125 C 11.632812 -34.03125 13.820312 -33.222656 15.15625 -31.609375 C 16.488281 -30.003906 17.15625 -27.488281 17.15625 -24.0625 L 10.28125 -24.0625 L 10.25 -26.375 C 10.25 -26.820312 10.125 -27.175781 9.875 -27.4375 C 9.625 -27.695312 9.273438 -27.828125 8.828125 -27.828125 C 8.304688 -27.828125 7.914062 -27.679688 7.65625 -27.390625 C 7.394531 -27.109375 7.265625 -26.71875 7.265625 -26.21875 C 7.265625 -25.125 7.890625 -23.984375 9.140625 -22.796875 L 13.0625 -19.03125 C 13.976562 -18.144531 14.738281 -17.300781 15.34375 -16.5 C 15.945312 -15.707031 16.429688 -14.765625 16.796875 -13.671875 C 17.160156 -12.585938 17.34375 -11.300781 17.34375 -9.8125 C 17.34375 -6.488281 16.734375 -3.96875 15.515625 -2.25 C 14.304688 -0.539062 12.300781 0.3125 9.5 0.3125 Z M 9.5 0.3125 "/></g></g></g><g fill="#000000" fill-opacity="1"><g transform="translate(38.716199, 35.322046)"><g><path d="M 7.296875 0.3125 C 5.492188 0.3125 4.25 -0.0664062 3.5625 -0.828125 C 2.882812 -1.585938 2.546875 -2.800781 2.546875 -4.46875 L 2.546875 -22.40625 L 0.625 -22.40625 L 0.625 -27.625 L 2.546875 -27.625 L 2.546875 -33.71875 L 9.21875 -33.71875 L 9.21875 -27.625 L 11.1875 -27.625 L 11.1875 -22.40625 L 9.21875 -22.40625 L 9.21875 -6.28125 C 9.21875 -5.78125 9.253906 -5.410156 9.328125 -5.171875 C 9.410156 -4.941406 9.625 -4.828125 9.96875 -4.828125 C 10.226562 -4.828125 10.472656 -4.835938 10.703125 -4.859375 C 10.941406 -4.890625 11.101562 -4.90625 11.1875 -4.90625 L 11.1875 -0.203125 C 10.789062 -0.0976562 10.21875 0.0078125 9.46875 0.125 C 8.726562 0.25 8.003906 0.3125 7.296875 0.3125 Z M 7.296875 0.3125 "/></g></g></g><g fill="#000000" fill-opacity="1"><g transform="translate(48.527889, 35.322046)"><g><path d="M 9.734375 0.3125 C 4.003906 0.3125 1.140625 -2.65625 1.140625 -8.59375 L 1.140625 -20.140625 C 1.140625 -22.859375 1.90625 -25.019531 3.4375 -26.625 C 4.96875 -28.238281 7.066406 -29.046875 9.734375 -29.046875 C 12.398438 -29.046875 14.5 -28.238281 16.03125 -26.625 C 17.5625 -25.019531 18.328125 -22.859375 18.328125 -20.140625 L 18.328125 -8.59375 C 18.328125 -2.65625 15.460938 0.3125 9.734375 0.3125 Z M 9.734375 -4.984375 C 10.285156 -4.984375 10.691406 -5.175781 10.953125 -5.5625 C 11.210938 -5.957031 11.34375 -6.5 11.34375 -7.1875 L 11.34375 -21.234375 C 11.34375 -22.910156 10.804688 -23.75 9.734375 -23.75 C 8.660156 -23.75 8.125 -22.910156 8.125 -21.234375 L 8.125 -7.1875 C 8.125 -6.5 8.253906 -5.957031 8.515625 -5.5625 C 8.773438 -5.175781 9.179688 -4.984375 9.734375 -4.984375 Z M 9.734375 -4.984375 "/></g></g></g><g fill="#000000" fill-opacity="1"><g transform="translate(65.874966, 35.322046)"><g><path d="M 1.375 -28.734375 L 8.25 -28.734375 L 8.25 -25.546875 C 8.582031 -26.671875 9.171875 -27.539062 10.015625 -28.15625 C 10.867188 -28.769531 11.925781 -29.078125 13.1875 -29.078125 L 13.1875 -23.359375 C 12.21875 -23.359375 11.148438 -23.21875 9.984375 -22.9375 C 8.828125 -22.664062 8.25 -22.347656 8.25 -21.984375 L 8.25 0 L 1.375 0 Z M 1.375 -28.734375 "/></g></g></g><g fill="#000000" fill-opacity="1"><g transform="translate(77.217295, 35.322046)"><g><path d="M 0.828125 0.4375 L 4.125 0.4375 C 4.59375 0.4375 4.828125 0.238281 4.828125 -0.15625 C 4.828125 -0.34375 4.8125 -0.488281 4.78125 -0.59375 L 0.3125 -28.734375 L 6.875 -28.734375 L 8.15625 -14.71875 L 8.796875 -7.578125 L 9.53125 -14.71875 L 11.0625 -28.734375 L 17.65625 -28.734375 L 12.328125 1.484375 C 12.140625 2.609375 11.765625 3.4375 11.203125 3.96875 C 10.640625 4.507812 9.757812 4.78125 8.5625 4.78125 L 0.828125 4.78125 Z M 0.828125 0.4375 "/></g></g></g><g fill="#000000" fill-opacity="1"><g transform="translate(93.151513, 35.322046)"><g><path d="M 0.515625 0 L 4.125 -17.890625 L 1.25 -33.75 L 7.84375 -33.75 L 9.609375 -22.140625 L 11.140625 -33.75 L 17.78125 -33.75 L 14.875 -17.890625 L 18.484375 0 L 11.65625 0 L 9.53125 -13.1875 L 7.375 0 Z M 0.515625 0 "/></g></g></g></svg>