<svg xmlns="http://www.w3.org/2000/svg" xmlns:xlink="http://www.w3.org/1999/xlink" width="95" zoomAndPan="magnify" viewBox="0 0 71.25 30.000001" height="40" preserveAspectRatio="xMidYMid meet" version="1.0"><defs><g/><clipPath id="78ce79ac95"><path d="M 54.929688 25.203125 L 57.636719 25.203125 L 57.636719 27.910156 L 54.929688 27.910156 Z M 54.929688 25.203125 " clip-rule="nonzero"/></clipPath><clipPath id="234c1527fd"><path d="M 56.28125 25.203125 C 55.535156 25.203125 54.929688 25.808594 54.929688 26.554688 C 54.929688 27.304688 55.535156 27.910156 56.28125 27.910156 C 57.03125 27.910156 57.636719 27.304688 57.636719 26.554688 C 57.636719 25.808594 57.03125 25.203125 56.28125 25.203125 Z M 56.28125 25.203125 " clip-rule="nonzero"/></clipPath></defs><g clip-path="url(#78ce79ac95)"><g clip-path="url(#234c1527fd)"><path fill="#ffde59" d="M 54.929688 25.203125 L 57.636719 25.203125 L 57.636719 27.910156 L 54.929688 27.910156 Z M 54.929688 25.203125 " fill-opacity="1" fill-rule="nonzero"/></g></g><g fill="#ffffff" fill-opacity="1"><g transform="translate(12.88843, 13.181614)"><g><path d="M 3.53125 0.125 C 2.914062 0.125 2.363281 0.0078125 1.875 -0.21875 C 1.382812 -0.457031 1 -0.804688 0.71875 -1.265625 C 0.4375 -1.722656 0.296875 -2.273438 0.296875 -2.921875 L 0.296875 -6.234375 L 2.890625 -6.234375 L 2.890625 -3.078125 C 2.890625 -2.835938 2.9375 -2.648438 3.03125 -2.515625 C 3.132812 -2.378906 3.289062 -2.3125 3.5 -2.3125 C 3.6875 -2.3125 3.828125 -2.375 3.921875 -2.5 C 4.023438 -2.625 4.078125 -2.804688 4.078125 -3.046875 L 4.078125 -13.21875 L 6.734375 -13.21875 L 6.734375 -3.3125 C 6.734375 -2.625 6.597656 -2.019531 6.328125 -1.5 C 6.054688 -0.976562 5.675781 -0.578125 5.1875 -0.296875 C 4.707031 -0.015625 4.15625 0.125 3.53125 0.125 Z M 3.53125 0.125 "/></g></g></g><g fill="#ffffff" fill-opacity="1"><g transform="translate(19.21288, 13.181614)"><g><path d="M 0.234375 0 L 1.515625 -13.21875 L 5.984375 -13.21875 L 7.25 0 L 4.734375 0 L 4.5625 -2.140625 L 2.953125 -2.140625 L 2.796875 0 Z M 3.15625 -4.25 L 4.359375 -4.25 L 3.765625 -10.96875 L 3.640625 -10.96875 Z M 3.15625 -4.25 "/></g></g></g><g fill="#ffffff" fill-opacity="1"><g transform="translate(25.829729, 13.181614)"><g><path d="M 0.578125 0 L 0.578125 -13.21875 L 4.625 -13.21875 L 5.71875 -5.15625 L 6.828125 -13.21875 L 10.890625 -13.21875 L 10.890625 0 L 8.484375 0 L 8.484375 -9.53125 L 6.953125 0 L 4.59375 0 L 2.96875 -9.53125 L 2.96875 0 Z M 0.578125 0 "/></g></g></g><g fill="#ffffff" fill-opacity="1"><g transform="translate(36.463191, 13.181614)"><g><path d="M 0.578125 0 L 0.578125 -13.21875 L 5.875 -13.21875 L 5.875 -10.671875 L 3.28125 -10.671875 L 3.28125 -8.09375 L 5.765625 -8.09375 L 5.765625 -5.609375 L 3.28125 -5.609375 L 3.28125 -2.5625 L 6.046875 -2.5625 L 6.046875 0 Z M 0.578125 0 "/></g></g></g><g fill="#ffffff" fill-opacity="1"><g transform="translate(41.956621, 13.181614)"><g><path d="M 3.71875 0.125 C 2.519531 0.125 1.65625 -0.171875 1.125 -0.765625 C 0.59375 -1.359375 0.328125 -2.316406 0.328125 -3.640625 L 0.328125 -4.9375 L 2.921875 -4.9375 L 2.921875 -3.296875 C 2.921875 -2.640625 3.132812 -2.3125 3.5625 -2.3125 C 3.789062 -2.3125 3.953125 -2.378906 4.046875 -2.515625 C 4.140625 -2.648438 4.1875 -2.882812 4.1875 -3.21875 C 4.1875 -3.644531 4.132812 -4 4.03125 -4.28125 C 3.925781 -4.5625 3.796875 -4.796875 3.640625 -4.984375 C 3.484375 -5.179688 3.195312 -5.476562 2.78125 -5.875 L 1.640625 -7.015625 C 0.765625 -7.878906 0.328125 -8.832031 0.328125 -9.875 C 0.328125 -11.007812 0.582031 -11.867188 1.09375 -12.453125 C 1.613281 -13.046875 2.375 -13.34375 3.375 -13.34375 C 4.5625 -13.34375 5.414062 -13.023438 5.9375 -12.390625 C 6.457031 -11.765625 6.71875 -10.78125 6.71875 -9.4375 L 4.03125 -9.4375 L 4.015625 -10.34375 C 4.015625 -10.519531 3.960938 -10.65625 3.859375 -10.75 C 3.765625 -10.851562 3.632812 -10.90625 3.46875 -10.90625 C 3.257812 -10.90625 3.101562 -10.847656 3 -10.734375 C 2.894531 -10.628906 2.84375 -10.476562 2.84375 -10.28125 C 2.84375 -9.851562 3.09375 -9.40625 3.59375 -8.9375 L 5.125 -7.46875 C 5.476562 -7.113281 5.773438 -6.78125 6.015625 -6.46875 C 6.253906 -6.15625 6.441406 -5.785156 6.578125 -5.359375 C 6.722656 -4.929688 6.796875 -4.425781 6.796875 -3.84375 C 6.796875 -2.539062 6.554688 -1.550781 6.078125 -0.875 C 5.609375 -0.207031 4.820312 0.125 3.71875 0.125 Z M 3.71875 0.125 "/></g></g></g><g fill="#ffffff" fill-opacity="1"><g transform="translate(12.88843, 26.971937)"><g><path d="M 0.578125 0 L 0.578125 -13.21875 L 4.625 -13.21875 L 5.71875 -5.15625 L 6.828125 -13.21875 L 10.890625 -13.21875 L 10.890625 0 L 8.484375 0 L 8.484375 -9.53125 L 6.953125 0 L 4.59375 0 L 2.96875 -9.53125 L 2.96875 0 Z M 0.578125 0 "/></g></g></g><g fill="#ffffff" fill-opacity="1"><g transform="translate(23.52189, 26.971937)"><g><path d="M 3.640625 0.125 C 2.554688 0.125 1.75 -0.179688 1.21875 -0.796875 C 0.695312 -1.410156 0.4375 -2.328125 0.4375 -3.546875 L 0.4375 -13.21875 L 3 -13.21875 L 3 -3.640625 C 3 -3.222656 3.039062 -2.894531 3.125 -2.65625 C 3.207031 -2.425781 3.378906 -2.3125 3.640625 -2.3125 C 3.910156 -2.3125 4.085938 -2.425781 4.171875 -2.65625 C 4.253906 -2.882812 4.296875 -3.210938 4.296875 -3.640625 L 4.296875 -13.21875 L 6.859375 -13.21875 L 6.859375 -3.546875 C 6.859375 -2.328125 6.59375 -1.410156 6.0625 -0.796875 C 5.539062 -0.179688 4.734375 0.125 3.640625 0.125 Z M 3.640625 0.125 "/></g></g></g><g fill="#ffffff" fill-opacity="1"><g transform="translate(29.96946, 26.971937)"><g><path d="M 0.578125 -13.21875 L 4.640625 -13.21875 C 5.296875 -13.21875 5.796875 -13.070312 6.140625 -12.78125 C 6.492188 -12.488281 6.734375 -12.078125 6.859375 -11.546875 C 6.984375 -11.023438 7.046875 -10.351562 7.046875 -9.53125 C 7.046875 -8.78125 6.945312 -8.191406 6.75 -7.765625 C 6.5625 -7.347656 6.222656 -7.054688 5.734375 -6.890625 C 6.140625 -6.804688 6.429688 -6.601562 6.609375 -6.28125 C 6.785156 -5.96875 6.875 -5.539062 6.875 -5 L 6.84375 0 L 4.265625 0 L 4.265625 -5.171875 C 4.265625 -5.535156 4.191406 -5.769531 4.046875 -5.875 C 3.898438 -5.976562 3.640625 -6.03125 3.265625 -6.03125 L 3.265625 0 L 0.578125 0 Z M 3.90625 -8.328125 C 4.28125 -8.328125 4.46875 -8.726562 4.46875 -9.53125 C 4.46875 -9.875 4.453125 -10.132812 4.421875 -10.3125 C 4.390625 -10.488281 4.332031 -10.609375 4.25 -10.671875 C 4.164062 -10.742188 4.046875 -10.78125 3.890625 -10.78125 L 3.28125 -10.78125 L 3.28125 -8.328125 Z M 3.90625 -8.328125 "/></g></g></g><g fill="#ffffff" fill-opacity="1"><g transform="translate(36.463191, 26.971937)"><g><path d="M 0.578125 -13.21875 L 4.078125 -13.21875 C 5.128906 -13.21875 5.878906 -12.875 6.328125 -12.1875 C 6.785156 -11.507812 7.015625 -10.515625 7.015625 -9.203125 C 7.015625 -7.890625 6.8125 -6.898438 6.40625 -6.234375 C 6.007812 -5.566406 5.296875 -5.234375 4.265625 -5.234375 L 3.1875 -5.234375 L 3.1875 0 L 0.578125 0 Z M 3.34375 -7.625 C 3.65625 -7.625 3.882812 -7.679688 4.03125 -7.796875 C 4.1875 -7.910156 4.285156 -8.078125 4.328125 -8.296875 C 4.378906 -8.523438 4.40625 -8.84375 4.40625 -9.25 C 4.40625 -9.800781 4.34375 -10.195312 4.21875 -10.4375 C 4.09375 -10.6875 3.847656 -10.8125 3.484375 -10.8125 L 3.1875 -10.8125 L 3.1875 -7.625 Z M 3.34375 -7.625 "/></g></g></g><g fill="#ffffff" fill-opacity="1"><g transform="translate(42.879982, 26.971937)"><g><path d="M 0.578125 0 L 0.578125 -13.21875 L 3.21875 -13.21875 L 3.21875 -8.5 L 4.46875 -8.5 L 4.46875 -13.21875 L 7.09375 -13.21875 L 7.09375 0 L 4.46875 0 L 4.46875 -6 L 3.21875 -6 L 3.21875 0 Z M 0.578125 0 "/></g></g></g><g fill="#ffffff" fill-opacity="1"><g transform="translate(49.712282, 26.971937)"><g><path d="M 2.1875 0 L 2.1875 -4.359375 L 0.078125 -13.21875 L 2.6875 -13.21875 L 3.4375 -8.734375 L 4.171875 -13.21875 L 6.78125 -13.21875 L 4.671875 -4.359375 L 4.671875 0 Z M 2.1875 0 "/></g></g></g></svg>