<svg xmlns="http://www.w3.org/2000/svg" xmlns:xlink="http://www.w3.org/1999/xlink" width="95" zoomAndPan="magnify" viewBox="0 0 71.25 37.5" height="50" preserveAspectRatio="xMidYMid meet" version="1.0"><defs><g/></defs><path stroke-linecap="butt" transform="matrix(0.14552, 0, 0, 0.14552, 3.591172, 29.801904)" fill="none" stroke-linejoin="miter" d="M -0.00912943 10.998051 L 439.094019 10.998051 " stroke="#ffde59" stroke-width="22" stroke-opacity="1" stroke-miterlimit="4"/><g fill="#ffffff" fill-opacity="1"><g transform="translate(2.664047, 27.732166)"><g><path d="M 6.921875 0.234375 C 4.691406 0.234375 3.078125 -0.316406 2.078125 -1.421875 C 1.085938 -2.535156 0.59375 -4.320312 0.59375 -6.78125 L 0.59375 -9.1875 L 5.4375 -9.1875 L 5.4375 -6.125 C 5.4375 -4.90625 5.828125 -4.296875 6.609375 -4.296875 C 7.046875 -4.296875 7.347656 -4.421875 7.515625 -4.671875 C 7.691406 -4.929688 7.78125 -5.367188 7.78125 -5.984375 C 7.78125 -6.785156 7.679688 -7.445312 7.484375 -7.96875 C 7.296875 -8.488281 7.054688 -8.925781 6.765625 -9.28125 C 6.472656 -9.632812 5.941406 -10.179688 5.171875 -10.921875 L 3.0625 -13.046875 C 1.414062 -14.648438 0.59375 -16.421875 0.59375 -18.359375 C 0.59375 -20.460938 1.070312 -22.0625 2.03125 -23.15625 C 3 -24.25 4.410156 -24.796875 6.265625 -24.796875 C 8.472656 -24.796875 10.0625 -24.207031 11.03125 -23.03125 C 12.007812 -21.863281 12.5 -20.03125 12.5 -17.53125 L 7.5 -17.53125 L 7.46875 -19.21875 C 7.46875 -19.550781 7.375 -19.8125 7.1875 -20 C 7.007812 -20.1875 6.757812 -20.28125 6.4375 -20.28125 C 6.050781 -20.28125 5.765625 -20.175781 5.578125 -19.96875 C 5.390625 -19.757812 5.296875 -19.472656 5.296875 -19.109375 C 5.296875 -18.304688 5.753906 -17.476562 6.671875 -16.625 L 9.53125 -13.875 C 10.195312 -13.226562 10.75 -12.613281 11.1875 -12.03125 C 11.625 -11.445312 11.972656 -10.757812 12.234375 -9.96875 C 12.503906 -9.175781 12.640625 -8.238281 12.640625 -7.15625 C 12.640625 -4.726562 12.195312 -2.890625 11.3125 -1.640625 C 10.425781 -0.390625 8.960938 0.234375 6.921875 0.234375 Z M 6.921875 0.234375 "/></g></g></g><g fill="#ffffff" fill-opacity="1"><g transform="translate(14.277048, 27.732166)"><g><path d="M 5.328125 0.234375 C 4.003906 0.234375 3.09375 -0.0390625 2.59375 -0.59375 C 2.101562 -1.15625 1.859375 -2.046875 1.859375 -3.265625 L 1.859375 -16.328125 L 0.453125 -16.328125 L 0.453125 -20.140625 L 1.859375 -20.140625 L 1.859375 -24.578125 L 6.71875 -24.578125 L 6.71875 -20.140625 L 8.15625 -20.140625 L 8.15625 -16.328125 L 6.71875 -16.328125 L 6.71875 -4.578125 C 6.71875 -4.210938 6.742188 -3.941406 6.796875 -3.765625 C 6.859375 -3.597656 7.015625 -3.515625 7.265625 -3.515625 C 7.453125 -3.515625 7.628906 -3.523438 7.796875 -3.546875 C 7.972656 -3.566406 8.09375 -3.578125 8.15625 -3.578125 L 8.15625 -0.140625 C 7.863281 -0.0664062 7.445312 0.0078125 6.90625 0.09375 C 6.363281 0.1875 5.835938 0.234375 5.328125 0.234375 Z M 5.328125 0.234375 "/></g></g></g><g fill="#ffffff" fill-opacity="1"><g transform="translate(21.427895, 27.732166)"><g><path d="M 7.09375 0.234375 C 2.914062 0.234375 0.828125 -1.929688 0.828125 -6.265625 L 0.828125 -14.671875 C 0.828125 -16.660156 1.382812 -18.238281 2.5 -19.40625 C 3.613281 -20.582031 5.144531 -21.171875 7.09375 -21.171875 C 9.039062 -21.171875 10.570312 -20.582031 11.6875 -19.40625 C 12.800781 -18.238281 13.359375 -16.660156 13.359375 -14.671875 L 13.359375 -6.265625 C 13.359375 -1.929688 11.269531 0.234375 7.09375 0.234375 Z M 7.09375 -3.640625 C 7.5 -3.640625 7.796875 -3.78125 7.984375 -4.0625 C 8.171875 -4.34375 8.265625 -4.734375 8.265625 -5.234375 L 8.265625 -15.484375 C 8.265625 -16.703125 7.875 -17.3125 7.09375 -17.3125 C 6.3125 -17.3125 5.921875 -16.703125 5.921875 -15.484375 L 5.921875 -5.234375 C 5.921875 -4.734375 6.015625 -4.34375 6.203125 -4.0625 C 6.398438 -3.78125 6.695312 -3.640625 7.09375 -3.640625 Z M 7.09375 -3.640625 "/></g></g></g><g fill="#ffffff" fill-opacity="1"><g transform="translate(34.070597, 27.732166)"><g><path d="M 1 -20.9375 L 6.015625 -20.9375 L 6.015625 -18.625 C 6.253906 -19.445312 6.679688 -20.082031 7.296875 -20.53125 C 7.921875 -20.976562 8.691406 -21.203125 9.609375 -21.203125 L 9.609375 -17.015625 C 8.898438 -17.015625 8.125 -16.914062 7.28125 -16.71875 C 6.4375 -16.519531 6.015625 -16.285156 6.015625 -16.015625 L 6.015625 0 L 1 0 Z M 1 -20.9375 "/></g></g></g><g fill="#ffffff" fill-opacity="1"><g transform="translate(42.336988, 27.732166)"><g><path d="M 0.59375 0.3125 L 3 0.3125 C 3.34375 0.3125 3.515625 0.171875 3.515625 -0.109375 C 3.515625 -0.242188 3.503906 -0.347656 3.484375 -0.421875 L 0.234375 -20.9375 L 5 -20.9375 L 5.953125 -10.734375 L 6.40625 -5.515625 L 6.953125 -10.734375 L 8.0625 -20.9375 L 12.875 -20.9375 L 8.984375 1.09375 C 8.847656 1.90625 8.570312 2.503906 8.15625 2.890625 C 7.75 3.285156 7.109375 3.484375 6.234375 3.484375 L 0.59375 3.484375 Z M 0.59375 0.3125 "/></g></g></g><g fill="#ffffff" fill-opacity="1"><g transform="translate(53.949987, 27.732166)"><g><path d="M 0.375 0 L 3 -13.046875 L 0.921875 -24.609375 L 5.71875 -24.609375 L 7.015625 -16.140625 L 8.125 -24.609375 L 12.953125 -24.609375 L 10.84375 -13.046875 L 13.46875 0 L 8.5 0 L 6.953125 -9.609375 L 5.375 0 Z M 0.375 0 "/></g></g></g></svg>