<svg xmlns="http://www.w3.org/2000/svg" xmlns:xlink="http://www.w3.org/1999/xlink" width="250" zoomAndPan="magnify" viewBox="0 0 187.5 187.499992" height="250" preserveAspectRatio="xMidYMid meet" version="1.2"><defs><clipPath id="961083be3d"><path d="M 42.746094 42.746094 L 153.730469 42.746094 L 153.730469 153.730469 L 42.746094 153.730469 Z M 42.746094 42.746094 "/></clipPath><clipPath id="89d81bc66f"><path d="M 33.363281 33.363281 L 147.421875 33.363281 L 147.421875 36.921875 L 33.363281 36.921875 Z M 33.363281 36.921875 L 36.921875 36.921875 L 36.921875 143.789062 L 33.363281 143.789062 Z M 143.789062 36.921875 L 147.421875 36.921875 L 147.421875 143.789062 L 143.789062 143.789062 Z M 33.363281 143.789062 L 147.421875 143.789062 L 147.421875 147.421875 L 33.363281 147.421875 Z M 33.363281 143.789062 "/></clipPath></defs><g id="0e8f2cd98e"><g clip-rule="nonzero" clip-path="url(#961083be3d)"><path style=" stroke:none;fill-rule:nonzero;fill:#005eb8;fill-opacity:1;" d="M 42.746094 42.746094 L 153.730469 42.746094 L 153.730469 153.730469 L 42.746094 153.730469 Z M 42.746094 42.746094 "/></g><g clip-rule="nonzero" clip-path="url(#89d81bc66f)"><path style=" stroke:none;fill-rule:nonzero;fill:#41b6e6;fill-opacity:1;" d="M 33.363281 33.363281 L 147.421875 33.363281 L 147.421875 147.421875 L 33.363281 147.421875 Z M 33.363281 33.363281 "/></g><path style=" stroke:none;fill-rule:nonzero;fill:#ffffff;fill-opacity:1;" d="M 53.046875 69.1875 L 53.046875 51.59375 L 66.570312 51.59375 L 66.570312 54.761719 L 56.691406 54.761719 L 56.691406 58.78125 L 63.199219 58.78125 L 63.199219 61.847656 L 56.691406 61.847656 L 56.691406 66.019531 L 66.671875 66.019531 L 66.671875 69.1875 Z M 53.046875 69.1875 "/><path style=" stroke:none;fill-rule:nonzero;fill:#ffffff;fill-opacity:1;" d="M 74.867188 69.1875 L 67.726562 51.59375 L 71.675781 51.59375 L 77.054688 65.492188 L 82.558594 51.59375 L 86.328125 51.59375 L 79.089844 69.1875 Z M 74.867188 69.1875 "/><path style=" stroke:none;fill-rule:nonzero;fill:#ffffff;fill-opacity:1;" d="M 87.960938 69.1875 L 87.960938 51.59375 L 101.484375 51.59375 L 101.484375 54.761719 L 91.605469 54.761719 L 91.605469 58.78125 L 98.117188 58.78125 L 98.117188 61.847656 L 91.605469 61.847656 L 91.605469 66.019531 L 101.589844 66.019531 L 101.589844 69.1875 Z M 87.960938 69.1875 "/><path style=" stroke:none;fill-rule:nonzero;fill:#ffffff;fill-opacity:1;" d="M 104.328125 69.1875 L 104.328125 51.59375 L 112.925781 51.59375 C 113.8125 51.59375 114.625 51.730469 115.371094 51.996094 C 116.121094 52.261719 116.761719 52.636719 117.292969 53.117188 C 117.832031 53.59375 118.25 54.167969 118.550781 54.839844 C 118.855469 55.507812 119.011719 56.242188 119.011719 57.046875 C 119.011719 58.152344 118.695312 59.140625 118.070312 60.015625 C 117.441406 60.890625 116.605469 61.535156 115.566406 61.949219 L 119.460938 69.1875 L 115.390625 69.1875 L 111.945312 62.453125 L 107.972656 62.453125 L 107.972656 69.1875 Z M 112.597656 54.738281 L 107.972656 54.738281 L 107.972656 59.460938 L 112.597656 59.460938 C 113.417969 59.460938 114.078125 59.242188 114.570312 58.808594 C 115.066406 58.375 115.3125 57.804688 115.3125 57.097656 C 115.3125 56.394531 115.066406 55.824219 114.570312 55.390625 C 114.078125 54.953125 113.417969 54.738281 112.597656 54.738281 Z M 112.597656 54.738281 "/><path style=" stroke:none;fill-rule:nonzero;fill:#ffffff;fill-opacity:1;" d="M 127.003906 69.1875 L 127.003906 62.453125 L 119.816406 51.59375 L 124.011719 51.59375 L 128.941406 59.234375 L 133.886719 51.59375 L 137.863281 51.59375 L 130.648438 62.480469 L 130.648438 69.1875 Z M 127.003906 69.1875 "/><path style=" stroke:none;fill-rule:nonzero;fill:#ffffff;fill-opacity:1;" d="M 51.917969 77.34375 L 51.917969 74.132812 L 67.402344 74.132812 L 67.402344 77.34375 L 61.496094 77.34375 L 61.496094 91.726562 L 57.851562 91.726562 L 57.851562 77.34375 Z M 51.917969 77.34375 "/><path style=" stroke:none;fill-rule:nonzero;fill:#ffffff;fill-opacity:1;" d="M 69.585938 91.726562 L 69.585938 74.132812 L 73.230469 74.132812 L 73.230469 81.195312 L 81.328125 81.195312 L 81.328125 74.132812 L 84.972656 74.132812 L 84.972656 91.726562 L 81.328125 91.726562 L 81.328125 84.539062 L 73.230469 84.539062 L 73.230469 91.726562 Z M 69.585938 91.726562 "/><path style=" stroke:none;fill-rule:nonzero;fill:#ffffff;fill-opacity:1;" d="M 88.3125 74.132812 L 91.960938 74.132812 L 91.960938 91.726562 L 88.3125 91.726562 Z M 88.3125 74.132812 "/><path style=" stroke:none;fill-rule:nonzero;fill:#ffffff;fill-opacity:1;" d="M 95.300781 74.132812 L 98.773438 74.132812 L 107.523438 85.519531 L 107.523438 74.132812 L 110.941406 74.132812 L 110.941406 91.726562 L 107.722656 91.726562 L 98.746094 79.964844 L 98.746094 91.726562 L 95.300781 91.726562 Z M 95.300781 74.132812 "/><path style=" stroke:none;fill-rule:nonzero;fill:#ffffff;fill-opacity:1;" d="M 131.753906 82.953125 C 131.753906 84.242188 131.53125 85.445312 131.085938 86.558594 C 130.644531 87.671875 130.03125 88.628906 129.25 89.429688 C 128.46875 90.226562 127.535156 90.851562 126.449219 91.3125 C 125.359375 91.773438 124.1875 92.003906 122.933594 92.003906 C 121.625 92.003906 120.402344 91.765625 119.261719 91.300781 C 118.121094 90.832031 117.136719 90.191406 116.308594 89.378906 C 115.476562 88.5625 114.820312 87.605469 114.332031 86.5 C 113.847656 85.390625 113.605469 84.199219 113.605469 82.925781 C 113.605469 81.652344 113.84375 80.464844 114.320312 79.359375 C 114.796875 78.253906 115.449219 77.292969 116.28125 76.480469 C 117.109375 75.667969 118.097656 75.027344 119.234375 74.558594 C 120.375 74.089844 121.589844 73.855469 122.882812 73.855469 C 124.339844 73.855469 125.714844 74.148438 127.003906 74.738281 C 128.292969 75.324219 129.359375 76.125 130.199219 77.144531 L 127.65625 79.488281 C 127.035156 78.75 126.320312 78.183594 125.507812 77.789062 C 124.695312 77.394531 123.820312 77.195312 122.882812 77.195312 C 122.09375 77.195312 121.359375 77.34375 120.679688 77.636719 C 120 77.929688 119.414062 78.332031 118.921875 78.839844 C 118.425781 79.355469 118.039062 79.957031 117.765625 80.65625 C 117.488281 81.347656 117.351562 82.105469 117.351562 82.925781 C 117.351562 83.75 117.496094 84.511719 117.777344 85.214844 C 118.0625 85.921875 118.457031 86.53125 118.957031 87.042969 C 119.460938 87.550781 120.058594 87.953125 120.753906 88.25 C 121.449219 88.542969 122.191406 88.6875 122.976562 88.6875 C 124.21875 88.6875 125.289062 88.34375 126.183594 87.65625 C 127.082031 86.96875 127.640625 86.085938 127.855469 85.015625 L 122.65625 85.015625 L 122.65625 81.847656 L 131.753906 81.847656 Z M 131.753906 82.953125 "/><path style=" stroke:none;fill-rule:nonzero;fill:#ffffff;fill-opacity:1;" d="M 48.128906 131.050781 L 60.039062 102.101562 L 66.988281 102.101562 L 78.734375 131.050781 L 72.238281 131.050781 L 69.304688 123.445312 L 57.355469 123.445312 L 54.375 131.050781 Z M 59.214844 118.644531 L 67.484375 118.644531 L 63.394531 107.972656 Z M 59.214844 118.644531 "/><path style=" stroke:none;fill-rule:nonzero;fill:#ffffff;fill-opacity:1;" d="M 81.421875 131.050781 L 81.421875 102.101562 L 95.9375 102.101562 C 97.347656 102.101562 98.644531 102.332031 99.84375 102.785156 C 101.042969 103.242188 102.070312 103.871094 102.925781 104.671875 C 103.78125 105.46875 104.449219 106.421875 104.933594 107.542969 C 105.414062 108.660156 105.65625 109.878906 105.65625 111.199219 C 105.65625 112.496094 105.414062 113.6875 104.933594 114.78125 C 104.449219 115.867188 103.773438 116.8125 102.90625 117.613281 C 102.039062 118.410156 101.011719 119.035156 99.824219 119.476562 C 98.640625 119.914062 97.347656 120.132812 95.9375 120.132812 L 87.417969 120.132812 L 87.417969 131.050781 Z M 95.273438 107.269531 L 87.417969 107.269531 L 87.417969 115.171875 L 95.273438 115.171875 C 96.566406 115.171875 97.609375 114.816406 98.398438 114.097656 C 99.183594 113.378906 99.578125 112.429688 99.578125 111.246094 C 99.578125 110.058594 99.183594 109.097656 98.398438 108.367188 C 97.609375 107.636719 96.566406 107.269531 95.273438 107.269531 Z M 95.273438 107.269531 "/><path style=" stroke:none;fill-rule:nonzero;fill:#ffffff;fill-opacity:1;" d="M 109.832031 131.050781 L 109.832031 102.101562 L 124.351562 102.101562 C 125.757812 102.101562 127.054688 102.332031 128.253906 102.785156 C 129.453125 103.242188 130.480469 103.871094 131.335938 104.671875 C 132.191406 105.46875 132.859375 106.421875 133.34375 107.542969 C 133.824219 108.660156 134.066406 109.878906 134.066406 111.199219 C 134.066406 112.496094 133.824219 113.6875 133.34375 114.78125 C 132.859375 115.867188 132.183594 116.8125 131.316406 117.613281 C 130.449219 118.410156 129.421875 119.035156 128.234375 119.476562 C 127.050781 119.914062 125.757812 120.132812 124.351562 120.132812 L 115.828125 120.132812 L 115.828125 131.050781 Z M 123.683594 107.269531 L 115.828125 107.269531 L 115.828125 115.171875 L 123.683594 115.171875 C 124.980469 115.171875 126.019531 114.816406 126.808594 114.097656 C 127.59375 113.378906 127.988281 112.429688 127.988281 111.246094 C 127.988281 110.058594 127.59375 109.097656 126.808594 108.367188 C 126.019531 107.636719 124.980469 107.269531 123.683594 107.269531 Z M 123.683594 107.269531 "/></g></svg>