<svg xmlns="http://www.w3.org/2000/svg" xmlns:xlink="http://www.w3.org/1999/xlink" width="500" zoomAndPan="magnify" viewBox="0 0 375 112.499997" height="150" preserveAspectRatio="xMidYMid meet" version="1.0"><defs><g/><clipPath id="0e5b067571"><path d="M 313.300781 37.996094 L 317.246094 37.996094 L 317.246094 41.941406 L 313.300781 41.941406 Z M 313.300781 37.996094 " clip-rule="nonzero"/></clipPath><clipPath id="238eea0599"><path d="M 315.273438 37.996094 C 314.183594 37.996094 313.300781 38.878906 313.300781 39.96875 C 313.300781 41.058594 314.183594 41.941406 315.273438 41.941406 C 316.363281 41.941406 317.246094 41.058594 317.246094 39.96875 C 317.246094 38.878906 316.363281 37.996094 315.273438 37.996094 Z M 315.273438 37.996094 " clip-rule="nonzero"/></clipPath></defs><g fill="#000000" fill-opacity="1"><g transform="translate(71.804446, 86.910057)"><g><path d="M 114.625 -16.828125 C 114.695312 -16.835938 114.773438 -16.847656 114.859375 -16.859375 C 115.023438 -16.878906 115.195312 -16.882812 115.375 -16.875 C 115.550781 -16.875 115.726562 -16.8125 115.90625 -16.6875 C 115.9375 -16.644531 115.972656 -16.59375 116.015625 -16.53125 C 116.066406 -16.476562 116.097656 -16.414062 116.109375 -16.34375 C 116.097656 -16.28125 116.078125 -16.210938 116.046875 -16.140625 C 116.015625 -16.078125 115.984375 -16.03125 115.953125 -16 C 115.742188 -15.914062 115.535156 -15.867188 115.328125 -15.859375 C 115.222656 -15.835938 115.109375 -15.816406 114.984375 -15.796875 C 113.734375 -15.671875 112.484375 -15.5625 111.234375 -15.46875 C 108.941406 -15.28125 106.644531 -15.070312 104.34375 -14.84375 C 94.894531 -13.914062 85.601562 -12.738281 76.46875 -11.3125 C 67.332031 -9.882812 58.097656 -8.25 48.765625 -6.40625 C 47.796875 -6.226562 46.820312 -6.007812 45.84375 -5.75 C 44.925781 -5.53125 44 -5.335938 43.0625 -5.171875 C 42.15625 -4.984375 41.503906 -4.460938 41.109375 -3.609375 C 39.296875 -0.148438 37.25 3.175781 34.96875 6.375 C 33.394531 8.644531 31.695312 10.722656 29.875 12.609375 C 28.050781 14.503906 26.070312 16.09375 23.9375 17.375 C 21.8125 18.65625 19.503906 19.488281 17.015625 19.875 C 14.535156 20.269531 11.847656 20.082031 8.953125 19.3125 C 7.617188 18.976562 6.382812 18.378906 5.25 17.515625 C 3.394531 15.992188 2.90625 14.109375 3.78125 11.859375 C 4.4375 10.390625 5.375 9.113281 6.59375 8.03125 C 8.425781 6.332031 10.632812 4.789062 13.21875 3.40625 C 15.800781 2.03125 18.566406 0.800781 21.515625 -0.28125 C 24.472656 -1.375 27.390625 -2.332031 30.265625 -3.15625 C 33.148438 -3.988281 35.789062 -4.679688 38.1875 -5.234375 C 39.15625 -5.484375 39.847656 -6.039062 40.265625 -6.90625 C 41.796875 -10.113281 43.375 -13.847656 45 -18.109375 C 46.632812 -22.367188 48.144531 -26.8125 49.53125 -31.4375 C 50.925781 -36.070312 52.039062 -40.539062 52.875 -44.84375 C 53.71875 -49.15625 54.132812 -52.976562 54.125 -56.3125 C 54.113281 -57.320312 53.921875 -58.304688 53.546875 -59.265625 C 52.890625 -60.785156 51.757812 -61.523438 50.15625 -61.484375 C 49.914062 -61.460938 49.691406 -61.4375 49.484375 -61.40625 C 49.023438 -61.332031 48.578125 -61.203125 48.140625 -61.015625 C 46.171875 -60.265625 43.8125 -58.929688 41.0625 -57.015625 C 38.320312 -55.097656 35.476562 -52.8125 32.53125 -50.15625 C 29.59375 -47.5 26.828125 -44.660156 24.234375 -41.640625 C 21.640625 -38.617188 19.519531 -35.628906 17.875 -32.671875 C 16.226562 -29.722656 15.316406 -26.984375 15.140625 -24.453125 C 15.035156 -22.285156 16.03125 -20.875 18.125 -20.21875 C 19.789062 -19.789062 21.488281 -19.757812 23.21875 -20.125 C 24.957031 -20.5 26.601562 -20.976562 28.15625 -21.5625 C 29.113281 -21.925781 30.085938 -22.1875 31.078125 -22.34375 C 31.492188 -22.414062 31.898438 -22.460938 32.296875 -22.484375 C 32.390625 -22.503906 32.484375 -22.488281 32.578125 -22.4375 C 32.679688 -22.382812 32.734375 -22.285156 32.734375 -22.140625 C 32.722656 -21.890625 32.613281 -21.738281 32.40625 -21.6875 C 31.0625 -21.34375 29.71875 -20.941406 28.375 -20.484375 C 26.738281 -19.898438 25.082031 -19.425781 23.40625 -19.0625 C 21.726562 -18.695312 20.035156 -18.59375 18.328125 -18.75 C 17.453125 -18.84375 16.609375 -19.066406 15.796875 -19.421875 C 13.890625 -20.304688 12.929688 -21.796875 12.921875 -23.890625 C 12.992188 -26.597656 13.882812 -29.535156 15.59375 -32.703125 C 17.3125 -35.867188 19.535156 -39.039062 22.265625 -42.21875 C 25.003906 -45.40625 27.953125 -48.390625 31.109375 -51.171875 C 34.265625 -53.960938 37.316406 -56.335938 40.265625 -58.296875 C 43.222656 -60.265625 45.78125 -61.597656 47.9375 -62.296875 C 48.445312 -62.484375 48.976562 -62.613281 49.53125 -62.6875 C 50.457031 -62.851562 51.382812 -62.878906 52.3125 -62.765625 C 54.03125 -62.515625 55.238281 -61.578125 55.9375 -59.953125 C 56.601562 -58.210938 56.78125 -55.71875 56.46875 -52.46875 C 56.164062 -49.21875 55.535156 -45.546875 54.578125 -41.453125 C 53.617188 -37.367188 52.484375 -33.238281 51.171875 -29.0625 C 49.867188 -24.882812 48.554688 -21.023438 47.234375 -17.484375 C 45.921875 -13.941406 44.757812 -11.078125 43.75 -8.890625 C 43.46875 -8.296875 43.195312 -7.703125 42.9375 -7.109375 C 42.882812 -6.953125 42.90625 -6.816406 43 -6.703125 C 43.101562 -6.597656 43.238281 -6.554688 43.40625 -6.578125 L 43.4375 -6.59375 C 43.882812 -6.664062 44.328125 -6.75 44.765625 -6.84375 C 46.066406 -7.09375 47.363281 -7.363281 48.65625 -7.65625 C 51.394531 -8.226562 54.144531 -8.78125 56.90625 -9.3125 C 76 -12.988281 95.238281 -15.492188 114.625 -16.828125 Z M 37.078125 -0.90625 C 37.160156 -1.082031 37.265625 -1.269531 37.390625 -1.46875 C 37.585938 -1.789062 37.785156 -2.148438 37.984375 -2.546875 C 38.179688 -2.941406 38.347656 -3.382812 38.484375 -3.875 C 38.253906 -3.84375 38.046875 -3.8125 37.859375 -3.78125 C 37.785156 -3.757812 37.707031 -3.742188 37.625 -3.734375 C 37.53125 -3.722656 37.421875 -3.707031 37.296875 -3.6875 C 36.515625 -3.457031 35.726562 -3.226562 34.9375 -3 C 33.914062 -2.707031 32.898438 -2.410156 31.890625 -2.109375 C 29.523438 -1.503906 26.804688 -0.65625 23.734375 0.4375 C 20.671875 1.53125 17.703125 2.820312 14.828125 4.3125 C 11.960938 5.800781 9.675781 7.457031 7.96875 9.28125 C 7.394531 9.914062 6.882812 10.613281 6.4375 11.375 C 5.144531 13.675781 5.617188 15.53125 7.859375 16.9375 C 10.390625 18.394531 12.859375 19.015625 15.265625 18.796875 C 17.679688 18.585938 19.984375 17.789062 22.171875 16.40625 C 24.367188 15.019531 26.40625 13.300781 28.28125 11.25 C 30.15625 9.207031 31.832031 7.109375 33.3125 4.953125 C 34.800781 2.804688 36.054688 0.851562 37.078125 -0.90625 Z M 37.078125 -0.90625 "/></g></g><g transform="translate(127.149935, 77.920636)"><g><path d="M 10.796875 -10.5625 C 11.085938 -10.445312 11.175781 -10.085938 11.0625 -9.484375 C 10.800781 -8.984375 10.515625 -8.519531 10.203125 -8.09375 C 9.898438 -7.664062 9.550781 -7.273438 9.15625 -6.921875 C 9.125 -6.921875 9.109375 -6.90625 9.109375 -6.875 C 8.859375 -6.625 8.578125 -6.398438 8.265625 -6.203125 C 5.742188 -4.796875 4.285156 -5.140625 3.890625 -7.234375 C 2.953125 -6.109375 2.316406 -5.410156 1.984375 -5.140625 C 1.179688 -4.472656 0.253906 -4.085938 -0.796875 -3.984375 C -1.554688 -3.898438 -2.101562 -4.046875 -2.4375 -4.421875 C -2.78125 -4.796875 -2.859375 -5.367188 -2.671875 -6.140625 C -2.347656 -7.347656 -1.800781 -8.46875 -1.03125 -9.5 C -0.132812 -10.664062 0.914062 -11.648438 2.125 -12.453125 C 2.769531 -12.921875 3.476562 -13.175781 4.25 -13.21875 C 5.019531 -13.300781 5.550781 -12.941406 5.84375 -12.140625 C 5.957031 -11.898438 5.925781 -11.671875 5.75 -11.453125 C 5.539062 -11.191406 5.265625 -11.097656 4.921875 -11.171875 C 4.898438 -11.171875 4.867188 -11.171875 4.828125 -11.171875 C 4.796875 -11.171875 4.765625 -11.175781 4.734375 -11.1875 C 4.328125 -11.59375 3.96875 -11.734375 3.65625 -11.609375 C 3.34375 -11.484375 3.015625 -11.273438 2.671875 -10.984375 C 1.109375 -9.703125 0.0546875 -8.085938 -0.484375 -6.140625 C -0.523438 -6.046875 -0.539062 -5.953125 -0.53125 -5.859375 C -0.53125 -5.765625 -0.488281 -5.691406 -0.40625 -5.640625 C -0.207031 -5.609375 0.00390625 -5.660156 0.234375 -5.796875 C 0.472656 -5.929688 0.695312 -6.113281 0.90625 -6.34375 C 1.125 -6.570312 1.316406 -6.757812 1.484375 -6.90625 C 1.492188 -6.957031 1.5 -6.984375 1.5 -6.984375 C 2.207031 -7.785156 2.894531 -8.613281 3.5625 -9.46875 C 3.84375 -9.882812 4.242188 -10.15625 4.765625 -10.28125 C 5.503906 -10.40625 5.863281 -10.128906 5.84375 -9.453125 C 5.8125 -9.191406 5.78125 -8.929688 5.75 -8.671875 C 5.625 -7.554688 5.710938 -6.925781 6.015625 -6.78125 C 6.316406 -6.632812 6.726562 -6.703125 7.25 -6.984375 C 7.769531 -7.265625 8.265625 -7.710938 8.734375 -8.328125 C 9.210938 -8.941406 9.601562 -9.492188 9.90625 -9.984375 C 10.21875 -10.484375 10.515625 -10.675781 10.796875 -10.5625 Z M 10.796875 -10.5625 "/></g></g><g transform="translate(138.306536, 76.108539)"><g><path d="M 16.203125 -11.296875 C 16.566406 -11.609375 16.867188 -11.71875 17.109375 -11.625 C 17.347656 -11.539062 17.320312 -11.179688 17.03125 -10.546875 C 16.644531 -9.796875 15.875 -8.9375 14.71875 -7.96875 C 13.570312 -7.007812 12.5 -6.5 11.5 -6.4375 C 10.507812 -6.382812 10.109375 -7.066406 10.296875 -8.484375 C 10.492188 -9.898438 10.597656 -10.691406 10.609375 -10.859375 C 10.617188 -11.023438 10.570312 -11.109375 10.46875 -11.109375 C 10.363281 -11.117188 10.160156 -10.972656 9.859375 -10.671875 C 8.960938 -9.804688 8.09375 -8.914062 7.25 -8 C 6.894531 -7.625 6.539062 -7.226562 6.1875 -6.8125 C 5.976562 -6.550781 5.753906 -6.285156 5.515625 -6.015625 C 5.515625 -6.015625 5.507812 -6 5.5 -5.96875 C 5.25 -5.625 4.921875 -5.367188 4.515625 -5.203125 C 4.335938 -5.109375 4.132812 -5.050781 3.90625 -5.03125 C 3.6875 -5.019531 3.5 -5.078125 3.34375 -5.203125 C 3.144531 -5.347656 3.050781 -5.515625 3.0625 -5.703125 C 3.070312 -5.898438 3.164062 -6.203125 3.34375 -6.609375 C 3.519531 -7.015625 3.710938 -7.457031 3.921875 -7.9375 C 4.140625 -8.425781 4.253906 -8.722656 4.265625 -8.828125 C 4.285156 -8.941406 4.253906 -9.046875 4.171875 -9.140625 C 4.078125 -9.234375 3.988281 -9.25 3.90625 -9.1875 C 3.820312 -9.132812 3.503906 -8.835938 2.953125 -8.296875 C 2.410156 -7.753906 1.671875 -6.992188 0.734375 -6.015625 C 0.296875 -5.578125 -0.125 -5.117188 -0.53125 -4.640625 C -0.632812 -4.492188 -0.75 -4.359375 -0.875 -4.234375 C -1.175781 -3.898438 -1.535156 -3.6875 -1.953125 -3.59375 C -2.242188 -3.507812 -2.472656 -3.535156 -2.640625 -3.671875 C -2.816406 -3.804688 -2.875 -4.019531 -2.8125 -4.3125 C -2.78125 -4.519531 -2.726562 -4.71875 -2.65625 -4.90625 C -2.613281 -5 -2.585938 -5.078125 -2.578125 -5.140625 C -1.984375 -7.085938 -1.40625 -9.039062 -0.84375 -11 C -0.820312 -11.039062 -0.8125 -11.101562 -0.8125 -11.1875 C -0.738281 -11.394531 -0.660156 -11.59375 -0.578125 -11.78125 C -0.359375 -12.125 -0.0546875 -12.269531 0.328125 -12.21875 C 0.785156 -12.164062 0.988281 -11.953125 0.9375 -11.578125 C 0.820312 -10.972656 0.71875 -10.378906 0.625 -9.796875 C 0.5625 -9.535156 0.492188 -9.273438 0.421875 -9.015625 C 0.335938 -8.554688 0.332031 -8.269531 0.40625 -8.15625 C 0.488281 -8.050781 0.757812 -8.175781 1.21875 -8.53125 C 1.5 -8.8125 1.785156 -9.097656 2.078125 -9.390625 C 2.429688 -9.710938 2.773438 -10.015625 3.109375 -10.296875 C 3.617188 -10.742188 4.15625 -11.140625 4.71875 -11.484375 C 4.988281 -11.648438 5.269531 -11.789062 5.5625 -11.90625 C 5.863281 -12.019531 6.164062 -11.992188 6.46875 -11.828125 C 6.695312 -11.691406 6.816406 -11.515625 6.828125 -11.296875 C 6.835938 -11.078125 6.8125 -10.867188 6.75 -10.671875 C 6.65625 -10.285156 6.628906 -10.039062 6.671875 -9.9375 C 6.710938 -9.832031 6.800781 -9.820312 6.9375 -9.90625 C 7.070312 -10 7.304688 -10.1875 7.640625 -10.46875 C 7.972656 -10.75 8.332031 -11.0625 8.71875 -11.40625 C 9.195312 -11.832031 9.710938 -12.253906 10.265625 -12.671875 C 10.691406 -13.078125 11.1875 -13.359375 11.75 -13.515625 C 12.519531 -13.691406 12.890625 -13.429688 12.859375 -12.734375 C 12.828125 -12.035156 12.679688 -11.1875 12.421875 -10.1875 C 12.171875 -9.1875 12.222656 -8.601562 12.578125 -8.4375 C 12.929688 -8.269531 13.59375 -8.671875 14.5625 -9.640625 C 15.53125 -10.617188 16.078125 -11.171875 16.203125 -11.296875 Z M 16.203125 -11.296875 "/></g></g><g transform="translate(156.10998, 73.216837)"><g><path d="M 8.546875 -8.015625 C 8.003906 -7.273438 7.335938 -6.609375 6.546875 -6.015625 C 5.753906 -5.421875 5.070312 -5.003906 4.5 -4.765625 C 3.9375 -4.523438 3.351562 -4.347656 2.75 -4.234375 C 1.757812 -4.023438 0.828125 -4.007812 -0.046875 -4.1875 C -1.492188 -4.519531 -2.128906 -5.492188 -1.953125 -7.109375 C -1.785156 -8.503906 -1.160156 -9.671875 -0.078125 -10.609375 C 0.992188 -11.554688 2.175781 -12.125 3.46875 -12.3125 C 3.46875 -12.3125 3.476562 -12.316406 3.5 -12.328125 C 3.820312 -12.398438 4.132812 -12.425781 4.4375 -12.40625 C 4.945312 -12.3125 5.300781 -12.070312 5.5 -11.6875 C 5.707031 -11.3125 5.695312 -10.847656 5.46875 -10.296875 C 4.925781 -9.097656 4.050781 -8.335938 2.84375 -8.015625 C 2.03125 -7.796875 1.226562 -7.707031 0.4375 -7.75 C 0.289062 -7.75 0.164062 -7.6875 0.0625 -7.5625 C -0.03125 -7.4375 -0.078125 -7.300781 -0.078125 -7.15625 C -0.148438 -6.15625 0.25 -5.585938 1.125 -5.453125 C 2.1875 -5.265625 3.238281 -5.4375 4.28125 -5.96875 C 5.46875 -6.5625 6.535156 -7.492188 7.484375 -8.765625 C 8.441406 -10.035156 9.015625 -10.648438 9.203125 -10.609375 C 9.390625 -10.566406 9.476562 -10.363281 9.46875 -10 C 9.394531 -9.425781 9.085938 -8.765625 8.546875 -8.015625 Z M 0.9375 -9.5625 C 0.882812 -9.46875 0.847656 -9.375 0.828125 -9.28125 C 0.816406 -9.1875 0.867188 -9.109375 0.984375 -9.046875 C 1.421875 -8.878906 1.863281 -8.863281 2.3125 -9 C 2.757812 -9.132812 3.117188 -9.367188 3.390625 -9.703125 C 3.671875 -10.046875 3.75 -10.425781 3.625 -10.84375 C 3.570312 -10.96875 3.476562 -11.039062 3.34375 -11.0625 C 3.21875 -11.082031 3.09375 -11.070312 2.96875 -11.03125 C 2.15625 -10.757812 1.476562 -10.269531 0.9375 -9.5625 Z M 0.9375 -9.5625 "/></g></g><g transform="translate(165.903557, 71.626128)"><g><path d="M 6.75 -9.859375 C 5.09375 -8.910156 3.898438 -8.164062 3.171875 -7.625 C 2.660156 -7.25 2.375 -6.957031 2.3125 -6.75 C 2.25 -6.550781 2.367188 -6.226562 2.671875 -5.78125 C 2.671875 -5.757812 2.691406 -5.726562 2.734375 -5.6875 C 3.078125 -5.125 3.328125 -4.53125 3.484375 -3.90625 C 3.765625 -2.625 2.804688 -1.539062 0.609375 -0.65625 C -1.578125 0.226562 -3.09375 0.488281 -3.9375 0.125 C -4.78125 -0.226562 -5.113281 -0.796875 -4.9375 -1.578125 C -4.757812 -2.367188 -4.109375 -3.242188 -2.984375 -4.203125 C -1.859375 -5.171875 -1.113281 -5.859375 -0.75 -6.265625 C -0.382812 -6.671875 -0.320312 -7.070312 -0.5625 -7.46875 C -0.632812 -7.601562 -0.71875 -7.734375 -0.8125 -7.859375 C -1.007812 -8.179688 -1.21875 -8.519531 -1.4375 -8.875 C -1.84375 -9.507812 -2.078125 -10.148438 -2.140625 -10.796875 C -2.210938 -11.453125 -2.0625 -12.035156 -1.6875 -12.546875 C -1.320312 -13.054688 -0.671875 -13.410156 0.265625 -13.609375 C 0.773438 -13.710938 1.25 -13.710938 1.6875 -13.609375 C 2.132812 -13.515625 2.519531 -13.273438 2.84375 -12.890625 C 3.101562 -12.609375 3.085938 -12.320312 2.796875 -12.03125 C 2.597656 -11.832031 2.367188 -11.773438 2.109375 -11.859375 C 1.941406 -11.890625 1.78125 -11.953125 1.625 -12.046875 C 1.613281 -12.085938 1.609375 -12.109375 1.609375 -12.109375 C 1.523438 -12.140625 1.457031 -12.171875 1.40625 -12.203125 C 1.3125 -12.296875 1.222656 -12.367188 1.140625 -12.421875 C 0.816406 -12.578125 0.507812 -12.585938 0.21875 -12.453125 C -0.0625 -12.328125 -0.242188 -12.066406 -0.328125 -11.671875 C -0.378906 -11.367188 -0.378906 -11.0625 -0.328125 -10.75 C -0.242188 -10.394531 -0.0976562 -10.050781 0.109375 -9.71875 C 0.234375 -9.53125 0.347656 -9.351562 0.453125 -9.1875 C 0.734375 -8.71875 0.945312 -8.398438 1.09375 -8.234375 C 1.25 -8.078125 1.410156 -8.023438 1.578125 -8.078125 C 1.742188 -8.140625 3.242188 -8.96875 6.078125 -10.5625 C 6.691406 -10.875 6.914062 -10.640625 6.75 -9.859375 Z M 0.515625 -2.234375 C 1.253906 -2.640625 1.5 -3.222656 1.25 -3.984375 C 1.238281 -4.035156 1.21875 -4.097656 1.1875 -4.171875 C 1.070312 -4.578125 0.925781 -4.882812 0.75 -5.09375 C 0.582031 -5.3125 0.28125 -5.257812 -0.15625 -4.9375 C -1.207031 -4.082031 -2.15625 -3.132812 -3 -2.09375 C -3.0625 -2 -3.113281 -1.910156 -3.15625 -1.828125 C -3.15625 -1.828125 -3.160156 -1.8125 -3.171875 -1.78125 C -3.234375 -1.675781 -3.226562 -1.570312 -3.15625 -1.46875 C -3.09375 -1.375 -2.984375 -1.34375 -2.828125 -1.375 C -1.640625 -1.375 -0.523438 -1.660156 0.515625 -2.234375 Z M 0.515625 -2.234375 "/></g></g><g transform="translate(173.358118, 70.41533)"><g/></g><g transform="translate(186.079672, 68.349048)"><g><path d="M 67.28125 -52.609375 C 67.226562 -52.398438 67.175781 -52.179688 67.125 -51.953125 C 66.675781 -49.785156 66.160156 -47.640625 65.578125 -45.515625 C 62.472656 -35.015625 58.96875 -24.769531 55.0625 -14.78125 C 53.78125 -11.5625 52.457031 -8.382812 51.09375 -5.25 C 49.726562 -2.113281 48.347656 1.007812 46.953125 4.125 C 46.628906 4.875 46.289062 5.613281 45.9375 6.34375 C 45.925781 6.40625 45.910156 6.453125 45.890625 6.484375 C 45.816406 6.679688 45.722656 6.859375 45.609375 7.015625 C 45.503906 7.179688 45.335938 7.28125 45.109375 7.3125 C 45.003906 7.332031 44.894531 7.328125 44.78125 7.296875 C 44.664062 7.265625 44.570312 7.210938 44.5 7.140625 C 44.425781 7.078125 44.363281 6.972656 44.3125 6.828125 C 44.269531 6.691406 44.265625 6.570312 44.296875 6.46875 C 44.484375 5.769531 44.71875 5.097656 45 4.453125 C 45.613281 2.960938 46.234375 1.46875 46.859375 -0.03125 C 48.035156 -2.800781 49.175781 -5.582031 50.28125 -8.375 C 52.75 -14.582031 55.046875 -20.878906 57.171875 -27.265625 C 59.304688 -33.660156 61.351562 -40.101562 63.3125 -46.59375 C 64.113281 -49.101562 64.679688 -51.742188 65.015625 -54.515625 C 65.097656 -55.003906 65.140625 -55.5 65.140625 -56 C 65.140625 -56.507812 65.097656 -57.03125 65.015625 -57.5625 C 64.742188 -58.6875 64.179688 -59.097656 63.328125 -58.796875 C 62.566406 -58.523438 61.863281 -58.160156 61.21875 -57.703125 C 59.707031 -56.640625 58.226562 -55.492188 56.78125 -54.265625 C 49.007812 -47.648438 42.210938 -39.890625 36.390625 -30.984375 C 36.304688 -30.835938 36.210938 -30.691406 36.109375 -30.546875 C 34.097656 -27.492188 32.109375 -24.421875 30.140625 -21.328125 C 28.179688 -18.234375 26.296875 -15.078125 24.484375 -11.859375 C 24.117188 -11.171875 23.722656 -10.53125 23.296875 -9.9375 C 22.828125 -9.28125 22.203125 -8.953125 21.421875 -8.953125 C 21.085938 -8.929688 20.789062 -9.039062 20.53125 -9.28125 C 20.28125 -9.53125 20.148438 -9.84375 20.140625 -10.21875 C 20.140625 -11.25 20.207031 -12.265625 20.34375 -13.265625 C 20.757812 -16.390625 21.242188 -19.488281 21.796875 -22.5625 C 21.867188 -23.03125 21.9375 -23.484375 22 -23.921875 C 22.09375 -25.046875 22.3125 -26.113281 22.65625 -27.125 C 22.644531 -27.144531 22.628906 -27.15625 22.609375 -27.15625 C 22.472656 -27.207031 22.335938 -27.238281 22.203125 -27.25 C 22.078125 -27.269531 21.96875 -27.207031 21.875 -27.0625 C 21.5 -26.488281 21.148438 -25.898438 20.828125 -25.296875 C 18.160156 -20.117188 15.535156 -14.910156 12.953125 -9.671875 C 10.378906 -4.429688 7.890625 0.878906 5.484375 6.265625 C 5.296875 6.785156 5.0625 7.21875 4.78125 7.5625 C 4.5 7.90625 4.078125 8.078125 3.515625 8.078125 C 3.253906 8.046875 3.035156 7.921875 2.859375 7.703125 C 2.679688 7.492188 2.617188 7.269531 2.671875 7.03125 C 2.835938 6.320312 3.050781 5.640625 3.3125 4.984375 C 4.019531 3.117188 4.71875 1.253906 5.40625 -0.609375 C 6.800781 -4.296875 8.175781 -8.003906 9.53125 -11.734375 C 11.644531 -17.429688 13.390625 -23.359375 14.765625 -29.515625 C 15.328125 -31.878906 15.695312 -34.332031 15.875 -36.875 C 15.96875 -38.226562 15.878906 -39.613281 15.609375 -41.03125 C 15.097656 -43.269531 14.078125 -44.765625 12.546875 -45.515625 C 11.023438 -46.273438 9.164062 -46.445312 6.96875 -46.03125 C 4.769531 -45.625 2.398438 -44.773438 -0.140625 -43.484375 C -2.691406 -42.203125 -5.269531 -40.628906 -7.875 -38.765625 C -10.476562 -36.898438 -12.957031 -34.90625 -15.3125 -32.78125 C -17.664062 -30.664062 -19.722656 -28.570312 -21.484375 -26.5 C -23.242188 -24.425781 -24.578125 -22.535156 -25.484375 -20.828125 C -26.410156 -18.941406 -27.125 -16.921875 -27.625 -14.765625 C -27.90625 -13.734375 -27.984375 -12.648438 -27.859375 -11.515625 C -27.859375 -11.273438 -27.945312 -11.082031 -28.125 -10.9375 C -28.300781 -10.789062 -28.519531 -10.71875 -28.78125 -10.71875 C -29.1875 -10.78125 -29.484375 -11.050781 -29.671875 -11.53125 C -29.835938 -12.1875 -29.878906 -12.789062 -29.796875 -13.34375 C -29.648438 -14.757812 -29.367188 -16.125 -28.953125 -17.4375 C -28.160156 -19.738281 -26.785156 -22.179688 -24.828125 -24.765625 C -22.878906 -27.359375 -20.53125 -29.914062 -17.78125 -32.4375 C -15.039062 -34.96875 -12.128906 -37.296875 -9.046875 -39.421875 C -5.960938 -41.554688 -2.894531 -43.320312 0.15625 -44.71875 C 3.21875 -46.113281 6.035156 -46.976562 8.609375 -47.3125 C 11.179688 -47.644531 13.316406 -47.269531 15.015625 -46.1875 C 16.710938 -45.113281 17.773438 -43.148438 18.203125 -40.296875 C 18.410156 -38.460938 18.40625 -36.679688 18.1875 -34.953125 C 17.851562 -32.398438 17.398438 -29.921875 16.828125 -27.515625 C 16.265625 -25.109375 15.628906 -22.734375 14.921875 -20.390625 C 14.710938 -19.660156 14.695312 -19.316406 14.875 -19.359375 C 15.0625 -19.410156 15.300781 -19.710938 15.59375 -20.265625 C 16.644531 -22.253906 17.695312 -24.222656 18.75 -26.171875 C 19.46875 -27.484375 20.207031 -28.769531 20.96875 -30.03125 C 21.070312 -30.207031 21.175781 -30.378906 21.28125 -30.546875 C 21.695312 -31.296875 22.269531 -31.84375 23 -32.1875 C 23.550781 -32.40625 24.050781 -32.351562 24.5 -32.03125 C 24.957031 -31.71875 25.1875 -31.171875 25.1875 -30.390625 C 25.175781 -30.304688 25.164062 -30.222656 25.15625 -30.140625 C 25.125 -29.117188 25.046875 -28.117188 24.921875 -27.140625 C 24.578125 -24.753906 24.207031 -22.375 23.8125 -20 C 23.625 -18.78125 23.441406 -17.546875 23.265625 -16.296875 C 23.210938 -16.117188 23.148438 -15.796875 23.078125 -15.328125 C 22.992188 -14.910156 22.914062 -14.5 22.84375 -14.09375 C 22.78125 -13.6875 22.722656 -13.375 22.671875 -13.15625 C 22.765625 -13.257812 23.507812 -14.441406 24.90625 -16.703125 C 26.8125 -19.765625 29.070312 -23.363281 31.6875 -27.5 C 34.3125 -31.632812 36.390625 -34.804688 37.921875 -37.015625 C 40.742188 -40.960938 43.800781 -44.628906 47.09375 -48.015625 C 50.382812 -51.410156 53.851562 -54.566406 57.5 -57.484375 C 58.394531 -58.160156 59.335938 -58.789062 60.328125 -59.375 C 60.546875 -59.488281 60.742188 -59.613281 60.921875 -59.75 C 61.847656 -60.3125 62.878906 -60.628906 64.015625 -60.703125 C 66.179688 -60.835938 67.375 -59.644531 67.59375 -57.125 C 67.71875 -55.5625 67.613281 -54.054688 67.28125 -52.609375 Z M 22.5 -27.25 C 22.570312 -27.207031 22.617188 -27.175781 22.640625 -27.15625 C 22.640625 -27.15625 22.644531 -27.144531 22.65625 -27.125 C 22.675781 -27.125 22.679688 -27.132812 22.671875 -27.15625 C 22.628906 -27.175781 22.570312 -27.207031 22.5 -27.25 Z M 22.5 -27.25 "/></g></g><g transform="translate(249.502338, 58.047702)"><g><path d="M -0.0625 -3.046875 C -1.125 -2.878906 -1.742188 -3.347656 -1.921875 -4.453125 C -2.140625 -5.804688 -1.648438 -8.34375 -0.453125 -12.0625 C -0.410156 -12.21875 -0.300781 -12.3125 -0.125 -12.34375 C 0.59375 -12.457031 0.992188 -12.238281 1.078125 -11.6875 C 1.117188 -11.476562 1.097656 -11.21875 1.015625 -10.90625 C 0.972656 -10.8125 0.617188 -9.238281 -0.046875 -6.1875 C -0.140625 -5.6875 -0.171875 -5.320312 -0.140625 -5.09375 C -0.0976562 -4.84375 0.03125 -4.734375 0.25 -4.765625 C 1.070312 -4.898438 2.894531 -7.285156 5.71875 -11.921875 C 6.070312 -12.546875 6.472656 -12.894531 6.921875 -12.96875 C 7.554688 -13.070312 7.910156 -12.890625 7.984375 -12.421875 C 8.015625 -12.234375 7.925781 -11.523438 7.71875 -10.296875 C 7.4375 -8.609375 7.316406 -7.640625 7.359375 -7.390625 C 7.421875 -7.015625 7.578125 -6.847656 7.828125 -6.890625 C 8.441406 -6.984375 10.066406 -8.378906 12.703125 -11.078125 C 12.847656 -11.234375 12.984375 -11.320312 13.109375 -11.34375 C 13.378906 -11.394531 13.550781 -11.1875 13.625 -10.71875 C 13.644531 -10.59375 13.628906 -10.484375 13.578125 -10.390625 C 12.210938 -8.773438 11.03125 -7.523438 10.03125 -6.640625 C 9.113281 -5.828125 8.265625 -5.351562 7.484375 -5.21875 L 7.25 -5.1875 C 6.0625 -5.238281 5.335938 -6.046875 5.078125 -7.609375 C 4.015625 -6.328125 3.128906 -5.285156 2.421875 -4.484375 C 1.722656 -3.679688 0.894531 -3.203125 -0.0625 -3.046875 Z M -0.0625 -3.046875 "/></g></g><g transform="translate(263.334503, 55.80103)"><g><path d="M 6.40625 -11.640625 C 6.425781 -10.847656 6.140625 -10.285156 5.546875 -9.953125 C 4.960938 -9.617188 4.707031 -9.894531 4.78125 -10.78125 C 4.851562 -11.675781 4.429688 -11.832031 3.515625 -11.25 C 2.609375 -10.664062 1.882812 -10.003906 1.34375 -9.265625 C 0.519531 -8.085938 -0.175781 -6.851562 -0.75 -5.5625 C -0.8125 -5.4375 -0.859375 -5.347656 -0.890625 -5.296875 C -1.066406 -4.921875 -1.238281 -4.570312 -1.40625 -4.25 C -1.519531 -4.019531 -1.671875 -3.863281 -1.859375 -3.78125 C -2.054688 -3.695312 -2.253906 -3.65625 -2.453125 -3.65625 C -2.648438 -3.65625 -2.804688 -3.707031 -2.921875 -3.8125 C -3.046875 -3.914062 -3.082031 -4.054688 -3.03125 -4.234375 C -2.957031 -4.554688 -2.863281 -4.890625 -2.75 -5.234375 C -2.050781 -7.265625 -1.328125 -9.316406 -0.578125 -11.390625 C -0.566406 -11.410156 -0.5625 -11.429688 -0.5625 -11.453125 C -0.457031 -11.753906 -0.328125 -12.050781 -0.171875 -12.34375 C 0.015625 -12.625 0.253906 -12.765625 0.546875 -12.765625 C 0.835938 -12.773438 1.0625 -12.632812 1.21875 -12.34375 C 1.40625 -11.976562 1.550781 -11.773438 1.65625 -11.734375 C 1.757812 -11.703125 1.957031 -11.769531 2.25 -11.9375 C 2.882812 -12.289062 3.507812 -12.570312 4.125 -12.78125 C 4.75 -12.988281 5.28125 -13.046875 5.71875 -12.953125 C 6.15625 -12.867188 6.382812 -12.429688 6.40625 -11.640625 Z M 6.40625 -11.640625 "/></g></g><g transform="translate(271.74823, 54.434441)"><g><path d="M 11.96875 -11.015625 C 11.738281 -10.867188 11.488281 -10.742188 11.21875 -10.640625 C 11.15625 -10.585938 11.101562 -10.546875 11.0625 -10.515625 C 10.800781 -10.367188 10.546875 -10.234375 10.296875 -10.109375 C 9.566406 -9.734375 8.828125 -9.34375 8.078125 -8.9375 C 7.515625 -8.664062 7.109375 -8.21875 6.859375 -7.59375 C 6.453125 -6.613281 5.878906 -5.8125 5.140625 -5.1875 C 4.398438 -4.5625 3.617188 -4.078125 2.796875 -3.734375 C 1.972656 -3.390625 1.238281 -3.140625 0.59375 -2.984375 C -0.0507812 -2.828125 -0.472656 -2.742188 -0.671875 -2.734375 C -0.691406 -2.722656 -0.722656 -2.71875 -0.765625 -2.71875 C -0.992188 -2.507812 -1.203125 -2.132812 -1.390625 -1.59375 C -1.585938 -1.050781 -1.75 -0.566406 -1.875 -0.140625 C -1.90625 -0.0351562 -1.925781 0.0546875 -1.9375 0.140625 C -2.6875 2.535156 -3.429688 4.9375 -4.171875 7.34375 C -4.578125 8.675781 -4.988281 10.003906 -5.40625 11.328125 C -5.539062 11.816406 -5.707031 12.28125 -5.90625 12.71875 C -6.101562 13.082031 -6.40625 13.191406 -6.8125 13.046875 C -7.082031 12.910156 -7.1875 12.675781 -7.125 12.34375 C -7.050781 12 -6.96875 11.65625 -6.875 11.3125 C -5.675781 6.425781 -4.363281 1.570312 -2.9375 -3.25 C -2.476562 -4.726562 -2.070312 -6.238281 -1.71875 -7.78125 C -1.550781 -8.488281 -1.378906 -9.210938 -1.203125 -9.953125 C -1.191406 -10.015625 -1.160156 -10.09375 -1.109375 -10.1875 C -1.035156 -10.582031 -0.921875 -10.972656 -0.765625 -11.359375 C -0.703125 -11.484375 -0.550781 -11.582031 -0.3125 -11.65625 C -0.0703125 -11.726562 0.144531 -11.734375 0.34375 -11.671875 C 0.601562 -11.554688 0.753906 -11.351562 0.796875 -11.0625 C 0.816406 -10.914062 0.8125 -10.753906 0.78125 -10.578125 C 0.757812 -10.460938 0.753906 -10.335938 0.765625 -10.203125 C 0.773438 -10.078125 0.832031 -9.960938 0.9375 -9.859375 C 1.125 -9.867188 1.273438 -9.921875 1.390625 -10.015625 C 1.515625 -10.109375 1.628906 -10.21875 1.734375 -10.34375 C 1.847656 -10.46875 1.984375 -10.5625 2.140625 -10.625 C 2.234375 -10.707031 2.328125 -10.769531 2.421875 -10.8125 C 2.921875 -11.15625 3.421875 -11.460938 3.921875 -11.734375 C 4.554688 -12.054688 5.242188 -12.113281 5.984375 -11.90625 C 6.296875 -11.769531 6.546875 -11.582031 6.734375 -11.34375 C 6.929688 -11.113281 7.09375 -10.859375 7.21875 -10.578125 C 7.332031 -10.378906 7.550781 -10.300781 7.875 -10.34375 C 8.207031 -10.382812 8.570312 -10.484375 8.96875 -10.640625 C 9.375 -10.796875 9.734375 -10.953125 10.046875 -11.109375 C 10.316406 -11.234375 10.507812 -11.316406 10.625 -11.359375 C 10.945312 -11.503906 11.285156 -11.582031 11.640625 -11.59375 C 11.742188 -11.613281 11.84375 -11.613281 11.9375 -11.59375 C 12.03125 -11.570312 12.085938 -11.488281 12.109375 -11.34375 C 12.117188 -11.28125 12.109375 -11.21875 12.078125 -11.15625 C 12.054688 -11.09375 12.019531 -11.046875 11.96875 -11.015625 Z M 5.078125 -8.765625 C 5.265625 -8.929688 5.359375 -9.1875 5.359375 -9.53125 C 5.359375 -9.882812 5.269531 -10.207031 5.09375 -10.5 C 5.03125 -10.59375 4.945312 -10.648438 4.84375 -10.671875 C 4.738281 -10.703125 4.632812 -10.707031 4.53125 -10.6875 C 4.34375 -10.613281 4.15625 -10.519531 3.96875 -10.40625 C 2.0625 -9.019531 0.628906 -7.265625 -0.328125 -5.140625 C -0.503906 -4.648438 -0.441406 -4.457031 -0.140625 -4.5625 C 0.160156 -4.664062 0.59375 -4.929688 1.15625 -5.359375 C 1.71875 -5.785156 2.289062 -6.269531 2.875 -6.8125 C 3.46875 -7.351562 3.972656 -7.816406 4.390625 -8.203125 C 4.785156 -8.546875 5.015625 -8.734375 5.078125 -8.765625 Z M 5.078125 -8.765625 "/></g></g><g transform="translate(284.150062, 52.420089)"><g><path d="M 12.390625 -10.0625 C 12.210938 -9.851562 12.03125 -9.65625 11.84375 -9.46875 C 11.195312 -8.894531 10.601562 -8.429688 10.0625 -8.078125 C 9.519531 -7.734375 8.878906 -7.363281 8.140625 -6.96875 C 7.035156 -6.4375 6.273438 -6.394531 5.859375 -6.84375 C 5.453125 -7.289062 5.28125 -7.984375 5.34375 -8.921875 C 5.46875 -10.253906 5.503906 -11.21875 5.453125 -11.8125 C 5.398438 -12.414062 5.164062 -12.59375 4.75 -12.34375 C 4.34375 -12.09375 3.640625 -11.34375 2.640625 -10.09375 C 1.242188 -8.4375 0.113281 -6.609375 -0.75 -4.609375 C -0.851562 -4.335938 -1 -4.101562 -1.1875 -3.90625 C -1.375 -3.71875 -1.625 -3.597656 -1.9375 -3.546875 C -2.238281 -3.492188 -2.46875 -3.535156 -2.625 -3.671875 C -2.789062 -3.804688 -2.832031 -4.019531 -2.75 -4.3125 C -2.320312 -5.882812 -1.878906 -7.441406 -1.421875 -8.984375 C -0.640625 -11.671875 0.125 -14.34375 0.875 -17 C 1.4375 -18.988281 1.992188 -20.976562 2.546875 -22.96875 C 2.878906 -24.132812 3.207031 -25.304688 3.53125 -26.484375 C 3.5625 -26.585938 3.59375 -26.695312 3.625 -26.8125 C 3.65625 -26.9375 3.691406 -27.066406 3.734375 -27.203125 C 3.773438 -27.335938 3.820312 -27.484375 3.875 -27.640625 C 3.925781 -27.773438 4.035156 -27.894531 4.203125 -28 C 4.378906 -28.113281 4.554688 -28.191406 4.734375 -28.234375 C 4.921875 -28.285156 5.066406 -28.300781 5.171875 -28.28125 C 5.335938 -28.195312 5.4375 -28.097656 5.46875 -27.984375 C 5.5 -27.878906 5.5 -27.757812 5.46875 -27.625 C 5.445312 -27.59375 5.4375 -27.550781 5.4375 -27.5 C 5.332031 -26.800781 5.203125 -26.125 5.046875 -25.46875 C 4.179688 -21.800781 3.175781 -18.164062 2.03125 -14.5625 C 1.945312 -14.320312 1.847656 -14.03125 1.734375 -13.6875 C 1.554688 -13.195312 1.394531 -12.71875 1.25 -12.25 C 1.113281 -11.78125 1.09375 -11.476562 1.1875 -11.34375 C 1.28125 -11.21875 1.59375 -11.390625 2.125 -11.859375 C 2.289062 -12.003906 2.4375 -12.148438 2.5625 -12.296875 C 2.988281 -12.691406 3.40625 -13.070312 3.8125 -13.4375 C 4.175781 -13.757812 4.601562 -13.972656 5.09375 -14.078125 C 6.257812 -14.347656 7.003906 -13.921875 7.328125 -12.796875 C 7.460938 -12.347656 7.519531 -11.890625 7.5 -11.421875 C 7.488281 -10.953125 7.457031 -10.5 7.40625 -10.0625 C 7.40625 -9.925781 7.398438 -9.796875 7.390625 -9.671875 C 7.316406 -8.878906 7.441406 -8.445312 7.765625 -8.375 C 8.097656 -8.3125 8.519531 -8.445312 9.03125 -8.78125 C 9.550781 -9.113281 10.066406 -9.484375 10.578125 -9.890625 C 10.953125 -10.171875 11.269531 -10.40625 11.53125 -10.59375 C 11.800781 -10.789062 12.019531 -10.890625 12.1875 -10.890625 C 12.445312 -10.890625 12.582031 -10.800781 12.59375 -10.625 C 12.601562 -10.445312 12.535156 -10.257812 12.390625 -10.0625 Z M 12.390625 -10.0625 "/></g></g><g transform="translate(296.989407, 50.334675)"><g><path d="M 11.78125 -10.921875 C 11.976562 -10.660156 11.8125 -10.179688 11.28125 -9.484375 C 10.75 -8.796875 9.757812 -7.90625 8.3125 -6.8125 C 7.757812 -6.46875 7.359375 -6.195312 7.109375 -6 C 6.867188 -5.8125 6.703125 -5.597656 6.609375 -5.359375 C 6.523438 -5.117188 6.441406 -4.742188 6.359375 -4.234375 C 6.296875 -3.878906 6.21875 -3.394531 6.125 -2.78125 C 5.96875 -2.007812 5.8125 -1.21875 5.65625 -0.40625 C 5.414062 1.226562 5.082031 2.859375 4.65625 4.484375 C 4.226562 6.117188 3.566406 7.585938 2.671875 8.890625 C 1.773438 10.203125 0.507812 11.179688 -1.125 11.828125 C -2.769531 12.421875 -4.40625 12.738281 -6.03125 12.78125 C -7.664062 12.820312 -9.296875 12.628906 -10.921875 12.203125 C -11.597656 12.023438 -12.21875 11.742188 -12.78125 11.359375 C -13.738281 10.648438 -13.953125 9.722656 -13.421875 8.578125 C -13.128906 7.992188 -12.773438 7.457031 -12.359375 6.96875 C -11.492188 6.007812 -10.585938 5.113281 -9.640625 4.28125 C -7.816406 2.726562 -5.9375 1.28125 -4 -0.0625 C -2.0625 -1.40625 -0.101562 -2.726562 1.875 -4.03125 C 2.019531 -4.113281 2.175781 -4.210938 2.34375 -4.328125 C 2.882812 -4.679688 3.441406 -5.046875 4.015625 -5.421875 C 4.398438 -5.640625 4.632812 -5.96875 4.71875 -6.40625 C 4.75 -6.5625 4.742188 -6.703125 4.703125 -6.828125 C 4.648438 -6.898438 4.59375 -6.9375 4.53125 -6.9375 C 4.46875 -6.9375 4.410156 -6.910156 4.359375 -6.859375 C 4.160156 -6.703125 3.957031 -6.519531 3.75 -6.3125 C 3.632812 -6.226562 3.515625 -6.128906 3.390625 -6.015625 C 2.691406 -5.429688 1.921875 -5.101562 1.078125 -5.03125 C -0.234375 -4.820312 -0.992188 -5.300781 -1.203125 -6.46875 C -1.390625 -7.425781 -1.375 -8.363281 -1.15625 -9.28125 C -0.9375 -10.207031 -0.566406 -11.101562 -0.046875 -11.96875 C 0.00390625 -12.0625 0.0859375 -12.144531 0.203125 -12.21875 C 0.328125 -12.289062 0.445312 -12.347656 0.5625 -12.390625 C 0.582031 -12.390625 0.609375 -12.40625 0.640625 -12.4375 C 0.890625 -12.5 1.085938 -12.46875 1.234375 -12.34375 C 1.390625 -12.21875 1.453125 -12.039062 1.421875 -11.8125 C 1.316406 -11.46875 1.222656 -11.117188 1.140625 -10.765625 C 1.054688 -10.503906 0.96875 -10.238281 0.875 -9.96875 C 0.550781 -8.925781 0.5 -7.882812 0.71875 -6.84375 C 0.757812 -6.625 0.878906 -6.472656 1.078125 -6.390625 C 1.273438 -6.316406 1.472656 -6.351562 1.671875 -6.5 C 2.296875 -6.875 2.8125 -7.347656 3.21875 -7.921875 C 4.363281 -9.347656 5.242188 -10.921875 5.859375 -12.640625 C 5.929688 -12.890625 6.035156 -13.101562 6.171875 -13.28125 C 6.304688 -13.46875 6.515625 -13.59375 6.796875 -13.65625 C 7.117188 -13.757812 7.390625 -13.726562 7.609375 -13.5625 C 7.828125 -13.40625 7.925781 -13.171875 7.90625 -12.859375 C 7.75 -11.796875 7.578125 -10.742188 7.390625 -9.703125 C 7.378906 -9.609375 7.363281 -9.53125 7.34375 -9.46875 C 7.289062 -9.226562 7.242188 -8.976562 7.203125 -8.71875 C 7.160156 -8.457031 7.15625 -8.234375 7.1875 -8.046875 C 7.21875 -7.867188 7.3125 -7.789062 7.46875 -7.8125 C 8.0625 -8.03125 8.878906 -8.664062 9.921875 -9.71875 C 10.960938 -10.78125 11.582031 -11.179688 11.78125 -10.921875 Z M 4.0625 -2.734375 C 4.050781 -2.785156 4.054688 -2.835938 4.078125 -2.890625 C 4.128906 -3.023438 4.148438 -3.164062 4.140625 -3.3125 C 4.128906 -3.46875 4.066406 -3.609375 3.953125 -3.734375 C 3.867188 -3.722656 3.804688 -3.710938 3.765625 -3.703125 C 3.617188 -3.660156 3.488281 -3.609375 3.375 -3.546875 C 3.132812 -3.398438 2.898438 -3.242188 2.671875 -3.078125 C 0.847656 -1.847656 -0.96875 -0.59375 -2.78125 0.6875 C -4.601562 1.976562 -6.378906 3.320312 -8.109375 4.71875 C -9.140625 5.5625 -10.097656 6.515625 -10.984375 7.578125 C -11.691406 8.453125 -11.984375 9.164062 -11.859375 9.71875 C -11.734375 10.269531 -11.164062 10.6875 -10.15625 10.96875 C -7.832031 11.738281 -5.453125 11.820312 -3.015625 11.21875 C -1.359375 10.769531 -0.0976562 9.910156 0.765625 8.640625 C 1.640625 7.367188 2.285156 5.914062 2.703125 4.28125 C 3.128906 2.644531 3.460938 1.023438 3.703125 -0.578125 C 3.804688 -1.335938 3.925781 -2.054688 4.0625 -2.734375 Z M 4.0625 -2.734375 "/></g></g></g><g clip-path="url(#0e5b067571)"><g clip-path="url(#238eea0599)"><path fill="#000000" d="M 313.300781 37.996094 L 317.246094 37.996094 L 317.246094 41.941406 L 313.300781 41.941406 Z M 313.300781 37.996094 " fill-opacity="1" fill-rule="nonzero"/></g></g></svg>