<?xml version="1.0" standalone="no"?>
<!DOCTYPE svg PUBLIC "-//W3C//DTD SVG 20010904//EN"
 "http://www.w3.org/TR/2001/REC-SVG-20010904/DTD/svg10.dtd">
<svg version="1.0" xmlns="http://www.w3.org/2000/svg"
 width="300.000000pt" height="300.000000pt" viewBox="0 0 300.000000 300.000000"
 preserveAspectRatio="xMidYMid meet">
<metadata>
Created by potrace 1.10, written by Peter Selinger 2001-2011
</metadata>
<g transform="translate(0.000000,300.000000) scale(0.100000,-0.100000)"
fill="#000000" stroke="none">
<path d="M1390 2934 c-14 -2 -63 -9 -110 -15 -129 -17 -271 -63 -415 -134
-394 -194 -672 -557 -767 -998 -26 -125 -31 -396 -9 -517 28 -157 96 -349 162
-462 23 -39 26 -52 19 -75 -8 -23 -166 -577 -181 -633 -3 -9 2 -14 11 -11 8 2
161 45 339 96 l324 93 46 -27 c109 -64 283 -127 439 -158 131 -26 403 -24 539
5 296 64 545 202 753 419 159 165 274 363 338 579 45 151 56 233 56 409 0 237
-40 413 -140 624 -68 144 -147 254 -274 382 -134 134 -213 192 -366 270 -131
67 -233 102 -370 129 -93 19 -339 34 -394 24z m285 -40 c211 -22 420 -99 608
-226 97 -65 124 -87 206 -168 55 -55 181 -204 181 -216 0 -3 13 -24 29 -47 51
-76 119 -231 151 -347 7 -25 16 -55 20 -66 20 -51 33 -235 27 -389 -10 -279
-78 -483 -245 -735 -74 -110 -240 -275 -357 -352 -105 -70 -265 -149 -350
-173 -33 -10 -67 -20 -75 -23 -8 -3 -26 -7 -40 -9 -14 -2 -36 -8 -50 -13 -43
-15 -138 -22 -289 -21 -168 2 -219 8 -352 44 -118 32 -174 54 -285 111 -74 37
-90 42 -122 35 -42 -8 -284 -75 -438 -119 -120 -35 -158 -38 -150 -12 9 31 47
165 62 222 8 30 26 93 40 140 71 243 69 221 23 311 -120 239 -159 404 -159
669 0 135 4 186 24 281 86 413 350 760 731 961 236 124 512 172 810 142z"/>
<path d="M1360 2814 c-257 -40 -409 -100 -629 -247 -42 -28 -167 -141 -205
-186 -12 -14 -29 -33 -39 -43 -36 -38 -112 -156 -158 -248 -60 -119 -85 -195
-115 -340 -20 -100 -23 -137 -20 -275 4 -167 16 -239 62 -380 26 -81 84 -209
125 -277 l22 -36 -32 -119 c-18 -65 -43 -158 -57 -208 -38 -133 -38 -138 -15
-159 21 -19 41 -16 216 34 17 5 83 24 149 41 118 33 118 33 150 14 126 -76
279 -137 426 -170 101 -22 340 -31 438 -16 89 14 247 55 300 78 248 107 399
220 567 424 162 195 275 524 275 793 -1 187 -37 369 -106 524 -48 108 -55 121
-123 227 -39 60 -67 91 -171 195 -105 103 -135 130 -149 130 -5 0 -11 4 -13 9
-4 13 -171 108 -243 138 -69 29 -159 57 -260 79 -66 15 -337 27 -395 18z m381
-50 c511 -97 912 -491 1020 -1005 28 -135 31 -372 5 -494 -114 -530 -495 -910
-1026 -1022 -123 -26 -362 -24 -490 4 -52 12 -124 31 -160 44 -62 21 -227 100
-280 135 -24 15 -35 13 -250 -49 -124 -35 -232 -66 -240 -68 -9 -3 -14 2 -11
11 2 8 33 116 68 240 l65 225 -40 65 c-124 207 -192 481 -178 717 37 632 511
1137 1136 1213 95 11 278 4 381 -16z"/>
<path d="M965 2221 c-50 -22 -116 -96 -151 -168 -107 -217 53 -605 385 -933
180 -178 374 -304 570 -371 85 -29 109 -33 206 -34 99 0 116 3 168 27 80 38
163 122 171 175 5 27 2 52 -7 74 -8 19 -75 94 -149 167 -130 127 -136 132
-177 132 -39 0 -48 -6 -121 -75 -43 -41 -84 -75 -91 -75 -6 0 -48 19 -92 43
-170 90 -330 250 -417 417 -22 43 -40 83 -40 90 0 6 34 47 75 90 69 73 75 82
75 121 0 41 -4 47 -137 181 -162 163 -187 176 -268 139z m126 -48 c65 -55 230
-226 239 -247 12 -33 1 -74 -29 -99 -48 -41 -111 -120 -111 -139 0 -31 64
-151 123 -231 99 -134 217 -234 361 -308 100 -51 108 -49 203 41 55 52 68 60
101 60 36 0 47 -8 154 -114 139 -137 148 -150 148 -198 0 -50 -61 -118 -145
-161 -54 -28 -69 -31 -150 -32 -201 0 -474 130 -694 331 -99 90 -108 98 -157
155 -71 81 -78 90 -135 176 -163 247 -221 480 -155 628 43 95 120 165 183 165
20 0 44 -10 64 -27z"/>
</g>
</svg>
