<?xml version="1.0" standalone="no"?>
<!DOCTYPE svg PUBLIC "-//W3C//DTD SVG 20010904//EN"
 "http://www.w3.org/TR/2001/REC-SVG-20010904/DTD/svg10.dtd">
<svg version="1.0" xmlns="http://www.w3.org/2000/svg"
 width="300.000000pt" height="300.000000pt" viewBox="0 0 300.000000 300.000000"
 preserveAspectRatio="xMidYMid meet">
<metadata>
Created by potrace 1.10, written by Peter Selinger 2001-2011
</metadata>
<g transform="translate(0.000000,300.000000) scale(0.100000,-0.100000)"
fill="#000000" stroke="none">
<path d="M1363 2843 c-12 -2 -23 -10 -26 -17 -7 -18 8 -205 18 -214 4 -4 5 30
2 76 -6 82 -6 83 16 80 20 -3 22 -10 25 -68 3 -65 22 -112 22 -55 0 48 -22
205 -29 204 -3 -1 -16 -4 -28 -6z m27 -38 c0 -18 -5 -25 -20 -25 -20 0 -28 28
-13 43 15 16 33 6 33 -18z"/>
<path d="M1555 2840 c3 -5 17 -10 30 -10 l24 0 -31 -82 c-47 -127 -47 -128 -4
-128 20 0 36 5 36 10 0 6 -11 10 -25 10 -14 0 -25 3 -25 8 0 4 14 43 30 87 40
106 39 115 -6 115 -21 0 -33 -4 -29 -10z"/>
<path d="M1756 2738 c-28 -137 -29 -144 -18 -133 5 6 17 48 26 95 9 47 19 93
22 103 3 9 1 17 -4 17 -5 0 -16 -37 -26 -82z"/>
<path d="M1150 2788 c0 -44 -15 -52 -39 -22 -12 15 -24 25 -27 21 -3 -3 4 -36
14 -74 11 -37 23 -83 27 -100 6 -29 25 -57 25 -36 0 7 -28 108 -45 164 -7 23
-7 23 12 7 25 -23 29 -23 38 5 5 17 12 1 32 -70 14 -51 29 -93 34 -93 7 0 2
23 -38 163 -16 58 -33 75 -33 35z"/>
<path d="M1940 2776 c0 -2 -16 -48 -35 -102 -19 -54 -35 -102 -35 -108 0 -20
20 19 41 82 16 48 28 66 50 77 33 17 33 17 18 -22 -36 -91 -58 -157 -54 -162
3 -2 7 -2 8 0 9 11 77 212 73 216 -2 3 -16 -3 -30 -13 -28 -18 -48 -12 -28 8
15 15 16 28 2 28 -5 0 -10 -2 -10 -4z"/>
<path d="M903 2718 c-12 -6 -24 -17 -27 -24 -6 -16 72 -194 85 -194 10 0 5 14
-28 82 -13 27 -21 53 -18 59 15 23 37 4 65 -57 17 -37 33 -64 36 -61 3 3 -16
50 -43 105 -45 94 -49 99 -70 90z m37 -49 c0 -10 -30 -20 -41 -13 -13 8 -11
42 4 47 11 4 37 -19 37 -34z"/>
<path d="M2148 2663 c-24 -27 -88 -148 -88 -166 0 -24 34 -39 52 -24 29 24 47
64 35 76 -6 6 -15 11 -21 11 -6 0 -5 -5 1 -11 15 -15 -10 -69 -32 -69 -29 0
-25 23 17 98 43 76 78 105 78 63 0 -12 5 -21 10 -21 14 0 13 33 -2 48 -17 17
-32 15 -50 -5z"/>
<path d="M542 2478 c-21 -21 -13 -37 57 -111 60 -61 73 -70 88 -61 28 17 27
47 -5 77 -27 26 -30 27 -43 11 -12 -16 -12 -17 2 -12 20 8 65 -35 54 -51 -13
-22 -34 -10 -95 55 -55 60 -60 68 -46 82 13 13 17 13 32 1 15 -12 17 -12 12 1
-6 19 -40 24 -56 8z"/>
<path d="M2418 2352 c-37 -47 -66 -88 -63 -90 2 -2 32 15 66 39 35 23 69 42
76 42 7 0 23 12 35 25 32 35 5 24 -72 -28 -33 -22 -60 -38 -60 -35 0 4 23 32
50 64 28 32 50 61 50 64 0 19 -21 -2 -82 -81z"/>
<path d="M2443 2277 c-28 -34 -50 -64 -47 -66 2 -2 47 24 99 59 52 35 93 65
90 68 -2 3 -30 -12 -61 -32 -61 -41 -81 -41 -44 -1 13 14 21 27 18 30 -2 3
-27 -23 -55 -58z"/>
<path d="M406 2293 l7 -38 -22 19 c-11 11 -23 17 -26 14 -3 -2 36 -37 86 -77
50 -40 93 -70 96 -67 4 3 4 8 2 9 -2 2 -30 23 -62 47 -51 38 -80 81 -64 97 3
3 38 -20 78 -51 40 -31 75 -54 78 -51 2 3 -4 12 -15 19 -10 8 -48 37 -83 65
-35 28 -68 51 -73 51 -5 0 -6 -16 -2 -37z"/>
<path d="M2577 2144 l-87 -55 17 -30 c10 -16 21 -29 25 -29 12 0 10 8 -7 34
-15 23 -15 24 41 56 52 29 59 31 69 16 17 -23 28 -20 15 4 -22 40 18 56 44 18
9 -12 19 -19 22 -15 7 7 -34 58 -45 56 -3 0 -45 -25 -94 -55z"/>
<path d="M270 2136 c0 -2 26 -19 58 -36 31 -18 76 -44 100 -57 23 -14 42 -21
42 -16 0 5 -41 32 -91 61 -84 48 -109 59 -109 48z"/>
<path d="M2690 1969 c-52 -23 -99 -44 -103 -48 -4 -4 2 -19 13 -34 l20 -26 53
21 c28 12 57 27 62 34 6 6 22 14 35 16 19 2 26 10 28 32 2 16 0 32 -5 37 -4 4
-51 -10 -103 -32z m96 -14 c-3 -9 -14 -15 -23 -13 -24 4 -29 35 -6 40 24 6 37
-7 29 -27z m-56 -14 c0 -26 -108 -71 -121 -50 -14 22 -12 24 39 46 61 27 82
28 82 4z"/>
<path d="M209 1955 c20 -35 18 -42 -9 -26 -8 6 -18 7 -23 4 -5 -3 39 -25 99
-49 120 -49 114 -47 114 -36 0 4 -30 19 -66 32 -74 28 -76 30 -64 50 8 13 19
12 76 -8 69 -24 101 -23 43 1 -99 41 -110 43 -125 23 -13 -18 -14 -17 -31 13
-10 17 -22 31 -26 31 -5 0 0 -16 12 -35z"/>
<path d="M2801 1777 c-14 -6 -32 -25 -41 -42 -16 -29 -58 -47 -87 -37 -19 6
-16 29 5 41 16 10 16 10 0 11 -23 0 -31 -16 -24 -46 4 -16 13 -24 29 -24 44 0
66 13 91 51 21 31 33 39 56 39 31 0 39 -17 18 -38 -8 -8 -8 -12 -1 -12 22 0
35 28 23 49 -12 24 -34 26 -69 8z"/>
<path d="M125 1762 c-12 -13 -4 -60 12 -66 33 -13 196 -47 201 -42 8 8 -38 23
-95 31 -51 7 -61 16 -45 42 5 9 22 8 67 -3 66 -15 92 -18 82 -7 -10 10 -215
52 -222 45z m53 -40 c2 -14 -2 -22 -11 -22 -19 0 -40 26 -32 40 11 18 40 6 43
-18z"/>
<path d="M2773 1561 c-45 -4 -86 -10 -90 -15 -11 -12 210 3 222 15 10 10 0 10
-132 0z"/>
<path d="M90 1533 c0 -5 11 -16 25 -23 14 -7 25 -16 25 -20 0 -4 -11 -13 -25
-20 -14 -7 -25 -17 -25 -22 0 -4 53 -8 118 -7 133 1 136 5 9 14 -77 6 -86 9
-70 20 17 13 17 14 -2 30 -19 15 -14 16 78 12 53 -2 97 0 97 4 0 5 -38 9 -84
9 -46 0 -98 3 -115 6 -17 4 -31 2 -31 -3z"/>
<path d="M2895 1396 c-8 -17 -16 -18 -112 -13 -65 5 -103 3 -103 -3 0 -6 30
-10 68 -10 96 0 142 -9 142 -28 0 -11 3 -13 11 -5 6 6 9 26 7 44 -3 28 -5 31
-13 15z"/>
<path d="M2667 1223 c-12 -21 -16 -63 -7 -63 5 0 10 9 10 20 0 28 16 32 80 17
48 -11 55 -15 52 -35 -2 -12 2 -22 7 -22 6 0 11 9 11 21 0 36 35 19 38 -19 4
-36 22 -34 22 2 0 33 -19 46 -97 62 -37 7 -78 16 -90 19 -12 3 -24 2 -26 -2z"/>
<path d="M2612 1028 c-21 -21 -13 -45 22 -62 42 -20 40 -20 83 1 26 12 42 14
61 7 34 -12 35 -36 2 -45 -22 -5 -23 -7 -7 -14 21 -9 47 11 47 36 0 11 -13 25
-31 35 -29 15 -34 15 -69 -1 -41 -19 -95 -14 -104 10 -5 13 11 33 27 33 5 0
11 3 15 6 3 3 -4 6 -14 6 -11 0 -25 -5 -32 -12z"/>
<path d="M2450 733 c0 -6 25 -30 55 -53 59 -45 62 -51 42 -68 -10 -9 -27 0
-70 33 -31 25 -59 45 -62 45 -14 0 11 -23 90 -84 l84 -65 15 24 c9 14 16 28
16 33 0 5 -30 33 -67 62 -38 30 -76 60 -85 68 -10 9 -18 10 -18 5z m144 -152
c-8 -17 -11 -18 -27 -6 -16 11 -17 17 -7 35 11 20 13 21 28 7 11 -12 13 -22 6
-36z"/>
<path d="M2326 568 c10 -13 21 -25 24 -28 61 -64 64 -69 45 -90 -21 -24 -9
-27 16 -4 16 14 18 14 28 -4 9 -16 7 -24 -5 -37 -9 -9 -14 -19 -11 -22 10 -9
37 24 37 44 -1 18 -128 163 -144 163 -5 0 -1 -10 10 -22z"/>
<path d="M2170 464 c0 -3 18 -32 41 -65 l40 -60 -23 -19 c-13 -11 -18 -19 -11
-20 6 0 15 5 18 10 10 16 32 12 40 -7 4 -12 -1 -23 -14 -32 -12 -7 -21 -17
-21 -22 0 -5 11 -2 25 7 14 9 25 24 25 33 0 9 -25 53 -55 99 -51 75 -65 92
-65 76z"/>
<path d="M844 435 c10 -8 23 -16 29 -18 5 -1 -7 -29 -27 -60 -32 -49 -39 -56
-56 -47 -31 17 -37 11 -10 -10 23 -18 24 -20 9 -35 -13 -13 -21 -15 -37 -6
-30 16 -40 13 -18 -4 37 -28 53 -18 110 72 l55 87 -27 18 c-32 21 -55 24 -28
3z"/>
<path d="M1976 351 c-15 -17 -14 -23 23 -103 42 -93 51 -103 81 -93 28 9 25
35 -15 123 -44 95 -58 107 -89 73z m77 -83 c36 -79 41 -114 14 -106 -14 4 -85
145 -86 171 -1 10 6 17 17 17 13 0 29 -23 55 -82z"/>
<path d="M1000 352 c0 -5 11 -12 25 -18 l25 -9 -41 -94 c-22 -51 -38 -96 -35
-99 3 -3 8 -3 9 -1 9 10 77 182 77 193 0 7 -11 18 -25 24 -31 14 -35 15 -35 4z"/>
<path d="M1831 274 c14 -39 3 -42 -31 -9 -17 16 -30 24 -30 18 0 -5 11 -18 24
-28 22 -17 23 -20 9 -30 -14 -10 -14 -19 -3 -66 16 -67 25 -79 62 -79 29 0 30
1 23 38 -12 65 -48 182 -56 182 -5 0 -4 -12 2 -26z m30 -115 c14 -52 15 -61 2
-66 -21 -8 -32 7 -48 66 -12 46 -12 52 3 60 22 12 24 10 43 -60z"/>
<path d="M1182 273 c-13 -25 -25 -82 -24 -115 0 -15 -4 -30 -9 -33 -5 -4 -9
-14 -9 -24 0 -19 49 -47 60 -34 4 4 18 52 30 107 19 82 21 100 9 107 -22 14
-48 10 -57 -8z m53 -20 c-3 -10 -11 -39 -16 -65 -7 -29 -16 -48 -24 -48 -23 0
-27 18 -15 75 10 49 14 55 37 55 20 0 24 -4 18 -17z m-37 -145 c-5 -34 -38
-37 -38 -4 0 20 5 26 21 26 15 0 20 -5 17 -22z"/>
<path d="M1375 193 c-3 -38 -8 -87 -11 -110 -4 -35 -2 -42 15 -48 35 -11 61
11 61 53 0 20 2 69 5 107 3 48 2 62 -4 45 -5 -14 -9 -49 -10 -77 -1 -49 -3
-53 -26 -53 -24 0 -25 1 -19 63 3 34 7 68 10 75 2 6 -1 12 -6 12 -4 0 -11 -30
-15 -67z m47 -99 c12 -11 -5 -44 -23 -44 -14 0 -19 7 -19 25 0 18 5 25 18 25
10 0 21 -3 24 -6z"/>
<path d="M1583 245 c-6 -17 5 -168 14 -191 3 -8 20 -14 40 -14 l34 0 -5 43
c-3 23 -8 72 -11 110 -7 66 -7 67 -36 67 -18 0 -32 -6 -36 -15z m52 -7 c2 -7
6 -52 10 -100 5 -76 4 -88 -10 -88 -21 0 -32 34 -36 110 -3 64 3 90 22 90 5 0
11 -6 14 -12z"/>
</g>
</svg>
